<svg width="1920" height="1348" fill="none" xmlns="http://www.w3.org/2000/svg"><g clip-path="url(#prefix__clip0_142_1270)"><path fill="#633BBC" d="M0 0h1920v1348H0z"/><g filter="url(#prefix__filter0_f_142_1270)"><circle cx="960" cy="1110" r="960" fill="#8257E5"/></g><path d="M272.109 191.25V305h-22.89V191.25h22.89zm35.625 48.359v18.907h-41.406v-18.907h41.406zm4.375-48.359v18.984h-45.781V191.25h45.781zm44.61 115.312c-5.781 0-10.912-.885-15.391-2.656-4.427-1.771-8.177-4.323-11.25-7.656-3.073-3.385-5.417-7.474-7.031-12.266-1.615-4.791-2.422-10.26-2.422-16.406v-6.953c0-6.875.781-12.891 2.344-18.047 1.562-5.208 3.776-9.583 6.64-13.125 2.865-3.542 6.381-6.172 10.547-7.891 4.219-1.77 8.985-2.656 14.297-2.656 5.313 0 9.974.886 13.985 2.656 4.062 1.719 7.421 4.323 10.078 7.813 2.656 3.437 4.661 7.708 6.015 12.813 1.354 5.104 2.031 11.041 2.031 17.812v10h-56.64v-15.391h35.156v-1.953c0-3.437-.364-6.302-1.094-8.594-.729-2.343-1.875-4.088-3.437-5.234-1.563-1.146-3.646-1.719-6.25-1.719-2.188 0-4.037.443-5.547 1.329-1.51.885-2.708 2.265-3.594 4.14-.885 1.875-1.536 4.323-1.953 7.344-.417 2.969-.625 6.536-.625 10.703v6.953c0 3.906.339 7.188 1.016 9.844.677 2.604 1.666 4.739 2.968 6.406 1.355 1.615 2.995 2.787 4.922 3.516 1.927.677 4.167 1.015 6.719 1.015 3.854 0 7.318-.677 10.391-2.031 3.125-1.406 5.781-3.307 7.968-5.703l8.75 13.281c-1.51 1.979-3.593 3.959-6.25 5.938-2.656 1.979-5.833 3.594-9.531 4.844-3.698 1.25-7.969 1.874-12.812 1.874zm76.562 0c-5.781 0-10.911-.885-15.39-2.656-4.427-1.771-8.177-4.323-11.25-7.656-3.073-3.385-5.417-7.474-7.032-12.266-1.614-4.791-2.421-10.26-2.421-16.406v-6.953c0-6.875.781-12.891 2.343-18.047 1.563-5.208 3.776-9.583 6.641-13.125 2.864-3.542 6.38-6.172 10.547-7.891 4.219-1.77 8.984-2.656 14.297-2.656 5.312 0 9.974.886 13.984 2.656 4.062 1.719 7.422 4.323 10.078 7.813 2.656 3.437 4.662 7.708 6.016 12.813 1.354 5.104 2.031 11.041 2.031 17.812v10h-56.641v-15.391h35.157v-1.953c0-3.437-.365-6.302-1.094-8.594-.729-2.343-1.875-4.088-3.438-5.234-1.562-1.146-3.645-1.719-6.25-1.719-2.187 0-4.036.443-5.547 1.329-1.51.885-2.708 2.265-3.593 4.14-.886 1.875-1.537 4.323-1.953 7.344-.417 2.969-.625 6.536-.625 10.703v6.953c0 3.906.338 7.188 1.015 9.844.677 2.604 1.667 4.739 2.969 6.406 1.354 1.615 2.995 2.787 4.922 3.516 1.927.677 4.167 1.015 6.719 1.015 3.854 0 7.317-.677 10.39-2.031 3.125-1.406 5.782-3.307 7.969-5.703l8.75 13.281c-1.51 1.979-3.594 3.959-6.25 5.938-2.656 1.979-5.833 3.594-9.531 4.844-3.698 1.25-7.969 1.874-12.813 1.874zm83.438-20.234V185h21.953v120l-19.844.078-2.109-18.75zm-43.828-20.625v-5.625c0-6.875.573-12.89 1.718-18.047 1.198-5.156 2.969-9.453 5.313-12.89 2.344-3.438 5.208-5.99 8.594-7.657 3.437-1.718 7.369-2.578 11.796-2.578 4.011 0 7.527 1.016 10.547 3.047 3.073 1.979 5.677 4.766 7.813 8.359 2.135 3.594 3.854 7.839 5.156 12.735 1.302 4.896 2.214 10.26 2.734 16.094v8.125c-.624 5.52-1.588 10.677-2.89 15.468-1.25 4.792-2.969 8.959-5.156 12.5-2.136 3.542-4.714 6.328-7.735 8.36-3.021 1.979-6.536 2.968-10.547 2.968-4.427 0-8.359-.885-11.796-2.656-3.386-1.771-6.25-4.375-8.594-7.812-2.292-3.49-4.037-7.761-5.235-12.813-1.145-5.104-1.718-10.963-1.718-17.578zm21.875-5.625v5.625c0 3.958.182 7.37.546 10.235.417 2.812 1.068 5.13 1.954 6.953.937 1.77 2.161 3.099 3.672 3.984 1.51.833 3.385 1.25 5.624 1.25 2.917 0 5.287-.729 7.11-2.187 1.823-1.511 3.177-3.568 4.062-6.172.938-2.657 1.459-5.704 1.563-9.141v-14.766c-.104-2.864-.443-5.442-1.016-7.734s-1.38-4.245-2.422-5.859c-1.041-1.615-2.343-2.865-3.906-3.75-1.51-.886-3.281-1.328-5.312-1.328-2.188 0-4.063.442-5.625 1.328-1.511.885-2.709 2.265-3.594 4.14-.886 1.823-1.563 4.193-2.031 7.11-.417 2.864-.625 6.302-.625 10.312zM555.234 185h21.797v100.391L575.469 305h-20.235V185zm65.704 74.922v5.547c0 6.875-.547 12.864-1.641 17.969-1.042 5.104-2.682 9.374-4.922 12.812-2.187 3.438-5 6.016-8.437 7.734-3.438 1.719-7.5 2.578-12.188 2.578-4.219 0-7.839-.989-10.859-2.968-3.021-2.032-5.573-4.818-7.657-8.36-2.031-3.593-3.698-7.786-5-12.578-1.25-4.844-2.161-10.13-2.734-15.859v-8.203c.521-5.625 1.406-10.86 2.656-15.703 1.302-4.844 2.969-9.037 5-12.579 2.032-3.593 4.558-6.38 7.578-8.359 3.073-2.031 6.693-3.047 10.86-3.047 4.791 0 8.906.886 12.344 2.656 3.437 1.719 6.25 4.297 8.437 7.735 2.24 3.437 3.88 7.734 4.922 12.891 1.094 5.104 1.641 11.015 1.641 17.734zm-21.797 5.547v-5.547c0-3.906-.157-7.266-.469-10.078-.313-2.813-.886-5.156-1.719-7.032-.833-1.874-2.031-3.281-3.594-4.218-1.51-.938-3.515-1.406-6.015-1.406-2.24 0-4.115.442-5.625 1.328-1.511.833-2.813 2.083-3.907 3.75-1.041 1.614-1.822 3.541-2.343 5.781-.469 2.187-.729 4.609-.781 7.265v14.766c.052 3.594.494 6.771 1.328 9.531.833 2.761 2.161 4.896 3.984 6.407 1.875 1.51 4.375 2.265 7.5 2.265 2.448 0 4.427-.416 5.938-1.25 1.51-.833 2.682-2.161 3.515-3.984.886-1.823 1.458-4.167 1.719-7.031.312-2.917.469-6.433.469-10.547zm72.5 20.078v-39.063c0-2.552-.313-4.583-.938-6.093-.573-1.511-1.458-2.605-2.656-3.282-1.146-.729-2.552-1.093-4.219-1.093-1.875 0-3.437.39-4.687 1.172-1.25.781-2.188 1.901-2.813 3.359-.573 1.458-.859 3.203-.859 5.234h-21.953c0-3.646.703-7.083 2.109-10.312 1.406-3.281 3.464-6.146 6.172-8.594 2.76-2.5 6.042-4.453 9.844-5.859 3.802-1.407 8.073-2.11 12.812-2.11 5.625 0 10.625.964 15 2.891 4.375 1.875 7.839 4.87 10.391 8.984 2.552 4.115 3.828 9.453 3.828 16.016v37.656c0 4.74.234 8.594.703 11.563.521 2.968 1.276 5.52 2.266 7.656V305h-22.032c-.989-2.344-1.744-5.26-2.265-8.75a81.44 81.44 0 01-.703-10.703zm2.656-32.188l.078 13.125h-8.047c-2.083 0-3.906.339-5.469 1.016a10.514 10.514 0 00-3.828 2.891c-1.041 1.198-1.823 2.604-2.343 4.218-.469 1.615-.704 3.334-.704 5.157 0 2.031.287 3.75.86 5.156.573 1.406 1.432 2.474 2.578 3.203 1.146.729 2.5 1.094 4.062 1.094 2.396 0 4.48-.495 6.25-1.485 1.771-.989 3.073-2.187 3.907-3.593.885-1.407 1.171-2.709.859-3.907l5 8.516c-.625 1.927-1.484 3.932-2.578 6.016a25.475 25.475 0 01-3.984 5.781c-1.615 1.771-3.62 3.229-6.016 4.375-2.344 1.094-5.13 1.64-8.36 1.64-4.531 0-8.671-1.041-12.421-3.124-3.75-2.084-6.719-5-8.907-8.75-2.135-3.75-3.203-8.204-3.203-13.36 0-4.271.677-8.125 2.031-11.562 1.407-3.49 3.49-6.433 6.25-8.828 2.761-2.448 6.25-4.323 10.469-5.626 4.219-1.302 9.167-1.953 14.844-1.953h8.672zm66.094 35c2.031 0 3.776-.416 5.234-1.25 1.51-.833 2.656-2.187 3.437-4.062.782-1.875 1.198-4.297 1.25-7.266h20.547c0 6.354-1.354 11.849-4.062 16.485-2.656 4.583-6.25 8.125-10.781 10.625-4.48 2.448-9.558 3.671-15.235 3.671s-10.625-.911-14.843-2.734c-4.219-1.823-7.709-4.479-10.469-7.969-2.709-3.489-4.766-7.734-6.172-12.734-1.354-5.052-2.031-10.833-2.031-17.344v-6.172c0-6.406.677-12.135 2.031-17.187 1.406-5.052 3.463-9.323 6.172-12.813 2.76-3.489 6.224-6.145 10.39-7.968 4.219-1.823 9.167-2.735 14.844-2.735 6.094 0 11.38 1.276 15.859 3.828 4.48 2.5 7.969 6.198 10.469 11.094 2.552 4.896 3.828 10.938 3.828 18.125h-20.547c-.052-3.229-.442-5.911-1.171-8.047-.677-2.187-1.745-3.854-3.203-5-1.407-1.198-3.282-1.797-5.626-1.797-2.447 0-4.427.521-5.937 1.563-1.458.989-2.578 2.448-3.359 4.375-.73 1.875-1.224 4.219-1.485 7.031-.26 2.813-.39 5.99-.39 9.531v6.172c0 3.802.104 7.11.312 9.922.261 2.761.755 5.104 1.485 7.031.781 1.875 1.901 3.282 3.359 4.219 1.51.938 3.542 1.406 6.094 1.406zm64.921-103.437V305h-21.874V184.922h21.874zm44.454 35.547L820 262.5l-17.891 20.078-7.734-16.64 13.75-20.079 15.547-25.39h26.094zM826.953 305l-18.437-38.828 15.078-13.906L852.031 305h-25.078zm94.219-17.031l18.203-96.719h12.031l3.594 15L935.469 305h-13.047l-1.25-17.031zm-6.25-96.719l14.687 96.953-2.5 16.797h-14.375l-20.39-113.75h22.578zm53.281 96.562l14.609-96.562h22.498L985.078 305h-14.453l-2.422-17.188zm-9.844-96.562l18.36 97.266L975.234 305h-13.046l-19.454-98.906 3.672-14.844h11.953zm81.481 29.219V305h-21.95v-84.531h21.95zm-22.96-21.875c0-3.386 1.06-6.172 3.2-8.36 2.19-2.239 5.1-3.359 8.75-3.359 3.7 0 6.61 1.12 8.75 3.359 2.13 2.188 3.2 4.974 3.2 8.36 0 3.333-1.09 6.12-3.28 8.359-2.14 2.188-5 3.281-8.59 3.281-3.7 0-6.64-1.093-8.83-3.281-2.14-2.239-3.2-5.026-3.2-8.359zm81.24 87.734V185h21.96v120l-19.85.078-2.11-18.75zm-43.82-20.625v-5.625c0-6.875.57-12.89 1.72-18.047 1.19-5.156 2.96-9.453 5.31-12.89 2.34-3.438 5.21-5.99 8.59-7.657 3.44-1.718 7.37-2.578 11.8-2.578 4.01 0 7.52 1.016 10.55 3.047 3.07 1.979 5.67 4.766 7.81 8.359 2.13 3.594 3.85 7.839 5.15 12.735 1.31 4.896 2.22 10.26 2.74 16.094v8.125c-.63 5.52-1.59 10.677-2.89 15.468-1.25 4.792-2.97 8.959-5.16 12.5-2.13 3.542-4.71 6.328-7.73 8.36-3.02 1.979-6.54 2.968-10.55 2.968-4.43 0-8.36-.885-11.8-2.656-3.38-1.771-6.25-4.375-8.59-7.812-2.29-3.49-4.04-7.761-5.23-12.813-1.15-5.104-1.72-10.963-1.72-17.578zm21.87-5.625v5.625c0 3.958.18 7.37.55 10.235.42 2.812 1.07 5.13 1.95 6.953.94 1.77 2.16 3.099 3.67 3.984 1.51.833 3.39 1.25 5.63 1.25 2.92 0 5.29-.729 7.11-2.187 1.82-1.511 3.18-3.568 4.06-6.172.94-2.657 1.46-5.704 1.56-9.141v-14.766c-.1-2.864-.44-5.442-1.01-7.734-.58-2.292-1.38-4.245-2.42-5.859-1.05-1.615-2.35-2.865-3.91-3.75-1.51-.886-3.28-1.328-5.31-1.328-2.19 0-4.07.442-5.63 1.328-1.51.885-2.71 2.265-3.59 4.14-.89 1.823-1.56 4.193-2.03 7.11-.42 2.864-.63 6.302-.63 10.312zm104.85-39.609h19.84V305c0 7.708-1.48 14.01-4.45 18.906-2.92 4.948-7.01 8.568-12.27 10.86-5.21 2.343-11.3 3.515-18.28 3.515-2.66 0-5.65-.364-8.98-1.093a42.437 42.437 0 01-9.54-3.36c-3.07-1.458-5.6-3.229-7.57-5.312l7.42-15.157c2.03 2.032 4.69 3.75 7.97 5.157 3.28 1.458 6.51 2.187 9.68 2.187 3.08 0 5.63-.495 7.66-1.484 2.08-.938 3.65-2.552 4.69-4.844 1.09-2.292 1.64-5.365 1.64-9.219v-65.078l2.19-19.609zm-47.19 45.234v-5.625c0-6.875.65-12.89 1.95-18.047 1.3-5.156 3.18-9.453 5.63-12.89 2.44-3.438 5.44-5.99 8.98-7.657 3.59-1.718 7.6-2.578 12.03-2.578 4.64 0 8.52 1.016 11.64 3.047 3.13 1.979 5.65 4.766 7.58 8.359 1.98 3.594 3.49 7.839 4.53 12.735 1.1 4.896 1.93 10.26 2.5 16.094v8.125c-.57 5.52-1.51 10.677-2.81 15.468-1.25 4.792-2.92 8.959-5 12.5-2.08 3.542-4.64 6.328-7.66 8.36-3.02 1.979-6.66 2.968-10.93 2.968-4.38 0-8.34-.885-11.88-2.656-3.49-1.771-6.48-4.375-8.98-7.812-2.45-3.49-4.33-7.761-5.63-12.813-1.3-5.104-1.95-10.963-1.95-17.578zm21.95-5.625v5.625c0 3.958.24 7.37.7 10.235.53 2.812 1.31 5.13 2.35 6.953 1.04 1.77 2.37 3.099 3.98 3.984 1.67.833 3.62 1.25 5.86 1.25 3.18 0 5.71-.729 7.58-2.187 1.93-1.511 3.33-3.568 4.22-6.172.94-2.657 1.46-5.704 1.56-9.141v-14.766c-.05-2.864-.39-5.442-1.01-7.734-.58-2.292-1.38-4.245-2.43-5.859-1.04-1.615-2.39-2.865-4.06-3.75-1.61-.886-3.51-1.328-5.7-1.328-2.24 0-4.17.442-5.78 1.328-1.62.885-2.97 2.265-4.07 4.14-1.04 1.823-1.84 4.193-2.42 7.11-.52 2.864-.78 6.302-.78 10.312zm95.47 46.484c-5.78 0-10.91-.885-15.39-2.656-4.43-1.771-8.18-4.323-11.25-7.656-3.07-3.385-5.42-7.474-7.03-12.266-1.62-4.791-2.42-10.26-2.42-16.406v-6.953c0-6.875.78-12.891 2.34-18.047 1.56-5.208 3.78-9.583 6.64-13.125 2.87-3.542 6.38-6.172 10.55-7.891 4.22-1.77 8.98-2.656 14.29-2.656 5.32 0 9.98.886 13.99 2.656 4.06 1.719 7.42 4.323 10.08 7.813 2.65 3.437 4.66 7.708 6.01 12.813 1.36 5.104 2.03 11.041 2.03 17.812v10h-56.64v-15.391h35.16v-1.953c0-3.437-.37-6.302-1.09-8.594-.73-2.343-1.88-4.088-3.44-5.234s-3.65-1.719-6.25-1.719c-2.19 0-4.04.443-5.55 1.329-1.51.885-2.71 2.265-3.59 4.14-.89 1.875-1.54 4.323-1.96 7.344-.41 2.969-.62 6.536-.62 10.703v6.953c0 3.906.34 7.188 1.01 9.844.68 2.604 1.67 4.739 2.97 6.406 1.36 1.615 3 2.787 4.93 3.516 1.92.677 4.16 1.015 6.71 1.015 3.86 0 7.32-.677 10.39-2.031 3.13-1.406 5.79-3.307 7.97-5.703l8.75 13.281c-1.51 1.979-3.59 3.959-6.25 5.938-2.65 1.979-5.83 3.594-9.53 4.844-3.7 1.25-7.97 1.874-12.81 1.874zm79.37-86.093v16.484h-43.12v-16.484h43.12zm-33.2-20.86h21.8v79.61c0 2.343.23 4.14.7 5.39s1.17 2.136 2.11 2.657c.99.468 2.29.703 3.91.703 1.09 0 2.11-.052 3.04-.157.94-.156 1.64-.312 2.11-.468v17.109a29.99 29.99 0 01-5.47 1.563c-1.87.364-4.11.546-6.71.546-4.38 0-8.18-.833-11.41-2.5-3.18-1.666-5.65-4.322-7.42-7.968-1.77-3.698-2.66-8.542-2.66-14.532v-81.953zM290.352 373.125V430h-7.579l-28.632-43.867V430h-7.539v-56.875h7.539l28.75 43.984v-43.984h7.461zm29.804 57.656c-2.942 0-5.612-.495-8.008-1.484-2.369-1.016-4.414-2.435-6.132-4.258-1.693-1.823-2.995-3.984-3.907-6.484-.911-2.5-1.367-5.235-1.367-8.203v-1.641c0-3.438.508-6.497 1.524-9.18 1.015-2.708 2.395-5 4.14-6.875 1.745-1.875 3.724-3.294 5.938-4.258a17.06 17.06 0 016.875-1.445c3.021 0 5.625.521 7.812 1.563 2.214 1.041 4.024 2.5 5.43 4.375 1.406 1.849 2.448 4.036 3.125 6.562.677 2.5 1.016 5.235 1.016 8.203v3.242h-31.563V405h24.336v-.547a18.024 18.024 0 00-1.172-5.469c-.651-1.77-1.693-3.229-3.125-4.375-1.432-1.145-3.385-1.718-5.859-1.718-1.641 0-3.151.351-4.531 1.054-1.381.677-2.566 1.693-3.555 3.047-.99 1.354-1.758 3.008-2.305 4.961-.547 1.953-.82 4.206-.82 6.758v1.641c0 2.005.273 3.893.82 5.664.573 1.744 1.393 3.281 2.461 4.609a11.803 11.803 0 003.945 3.125c1.563.755 3.334 1.133 5.313 1.133 2.552 0 4.713-.521 6.484-1.563 1.771-1.041 3.321-2.435 4.649-4.179l4.375 3.476c-.912 1.38-2.071 2.695-3.477 3.945-1.406 1.25-3.138 2.266-5.195 3.047-2.031.782-4.44 1.172-7.227 1.172zm29.766-43.047l9.258 15.391 9.375-15.391h8.476l-13.828 20.86L377.461 430h-8.359l-9.766-15.859L349.57 430h-8.398l14.219-21.406-13.789-20.86h8.32zm52.5 0v5.547H379.57v-5.547h22.852zm-15.117-10.273h7.226v42.07c0 1.433.222 2.513.664 3.242.443.73 1.016 1.211 1.719 1.446a7.13 7.13 0 002.266.351c.599 0 1.224-.052 1.875-.156a45.85 45.85 0 001.523-.312l.039 5.898c-.573.182-1.328.352-2.265.508-.912.182-2.019.273-3.321.273-1.771 0-3.398-.351-4.883-1.054-1.484-.704-2.669-1.875-3.554-3.516-.86-1.667-1.289-3.906-1.289-6.719v-42.031zm79.023 46.406V430h-28.437v-6.133h28.437zm-26.953-50.742V430h-7.539v-56.875h7.539zm52.031 57.656c-2.942 0-5.612-.495-8.008-1.484-2.369-1.016-4.414-2.435-6.132-4.258-1.693-1.823-2.995-3.984-3.907-6.484-.911-2.5-1.367-5.235-1.367-8.203v-1.641c0-3.438.508-6.497 1.524-9.18 1.015-2.708 2.395-5 4.14-6.875 1.745-1.875 3.724-3.294 5.938-4.258a17.06 17.06 0 016.875-1.445c3.021 0 5.625.521 7.812 1.563 2.214 1.041 4.024 2.5 5.43 4.375 1.406 1.849 2.448 4.036 3.125 6.562.677 2.5 1.016 5.235 1.016 8.203v3.242h-31.563V405h24.336v-.547a18.024 18.024 0 00-1.172-5.469c-.651-1.77-1.693-3.229-3.125-4.375-1.432-1.145-3.385-1.718-5.859-1.718-1.641 0-3.151.351-4.531 1.054-1.381.677-2.566 1.693-3.555 3.047-.99 1.354-1.758 3.008-2.305 4.961-.547 1.953-.82 4.206-.82 6.758v1.641c0 2.005.273 3.893.82 5.664.573 1.744 1.393 3.281 2.461 4.609a11.803 11.803 0 003.945 3.125c1.563.755 3.334 1.133 5.313 1.133 2.552 0 4.713-.521 6.484-1.563 1.771-1.041 3.321-2.435 4.649-4.179l4.375 3.476c-.912 1.38-2.071 2.695-3.477 3.945-1.406 1.25-3.138 2.266-5.195 3.047-2.031.782-4.44 1.172-7.227 1.172zm37.188-7.304l11.562-35.743h7.383L532.344 430H527.5l1.094-6.523zm-9.649-35.743l11.914 35.938.821 6.328h-4.844l-15.313-42.266h7.422zm52.539 43.047c-2.942 0-5.612-.495-8.007-1.484-2.37-1.016-4.415-2.435-6.133-4.258-1.693-1.823-2.995-3.984-3.906-6.484-.912-2.5-1.368-5.235-1.368-8.203v-1.641c0-3.438.508-6.497 1.524-9.18 1.015-2.708 2.396-5 4.14-6.875 1.745-1.875 3.724-3.294 5.938-4.258a17.06 17.06 0 016.875-1.445c3.021 0 5.625.521 7.812 1.563 2.214 1.041 4.024 2.5 5.43 4.375 1.406 1.849 2.448 4.036 3.125 6.562.677 2.5 1.016 5.235 1.016 8.203v3.242h-31.563V405h24.336v-.547a18.024 18.024 0 00-1.172-5.469c-.651-1.77-1.692-3.229-3.125-4.375-1.432-1.145-3.385-1.718-5.859-1.718-1.641 0-3.151.351-4.531 1.054-1.381.677-2.565 1.693-3.555 3.047-.99 1.354-1.758 3.008-2.305 4.961-.547 1.953-.82 4.206-.82 6.758v1.641c0 2.005.273 3.893.82 5.664.573 1.744 1.393 3.281 2.461 4.609a11.803 11.803 0 003.945 3.125c1.563.755 3.334 1.133 5.313 1.133 2.552 0 4.714-.521 6.484-1.563 1.771-1.041 3.321-2.435 4.649-4.179l4.375 3.476c-.912 1.38-2.071 2.695-3.477 3.945-1.406 1.25-3.138 2.266-5.195 3.047-2.031.782-4.44 1.172-7.227 1.172zM604.219 370v60h-7.266v-60h7.266zm47.5 42.812l11.289-39.687h5.469l-3.165 15.43L653.164 430h-5.43l3.985-17.188zm-11.68-39.687l8.984 38.906L651.719 430h-5.391l-13.789-56.875h7.5zm43.047 38.867l8.789-38.867h7.539L685.664 430h-5.391l2.813-18.008zm-13.789-38.867l10.976 39.687L684.258 430h-5.43l-11.719-41.445-3.203-15.43h5.391zm53.672 57.656c-2.943 0-5.612-.495-8.008-1.484-2.37-1.016-4.414-2.435-6.133-4.258-1.693-1.823-2.995-3.984-3.906-6.484-.912-2.5-1.367-5.235-1.367-8.203v-1.641c0-3.438.507-6.497 1.523-9.18 1.016-2.708 2.396-5 4.141-6.875s3.724-3.294 5.937-4.258a17.064 17.064 0 016.875-1.445c3.021 0 5.625.521 7.813 1.563 2.213 1.041 4.023 2.5 5.429 4.375 1.407 1.849 2.448 4.036 3.125 6.562.678 2.5 1.016 5.235 1.016 8.203v3.242h-31.562V405h24.336v-.547a18.054 18.054 0 00-1.172-5.469c-.651-1.77-1.693-3.229-3.125-4.375-1.433-1.145-3.386-1.718-5.86-1.718-1.64 0-3.151.351-4.531 1.054-1.38.677-2.565 1.693-3.555 3.047-.989 1.354-1.757 3.008-2.304 4.961-.547 1.953-.821 4.206-.821 6.758v1.641c0 2.005.274 3.893.821 5.664.573 1.744 1.393 3.281 2.461 4.609a11.784 11.784 0 003.945 3.125c1.562.755 3.333 1.133 5.312 1.133 2.552 0 4.714-.521 6.485-1.563 1.771-1.041 3.32-2.435 4.648-4.179l4.375 3.476c-.911 1.38-2.07 2.695-3.476 3.945-1.407 1.25-3.138 2.266-5.196 3.047-2.031.782-4.44 1.172-7.226 1.172zm42.422 0c-2.943 0-5.612-.495-8.008-1.484-2.37-1.016-4.414-2.435-6.133-4.258-1.693-1.823-2.995-3.984-3.906-6.484-.912-2.5-1.367-5.235-1.367-8.203v-1.641c0-3.438.507-6.497 1.523-9.18 1.016-2.708 2.396-5 4.141-6.875 1.744-1.875 3.724-3.294 5.937-4.258a17.064 17.064 0 016.875-1.445c3.021 0 5.625.521 7.813 1.563 2.213 1.041 4.023 2.5 5.429 4.375 1.407 1.849 2.448 4.036 3.125 6.562.677 2.5 1.016 5.235 1.016 8.203v3.242h-31.563V405h24.336v-.547a18.023 18.023 0 00-1.171-5.469c-.652-1.77-1.693-3.229-3.126-4.375-1.432-1.145-3.385-1.718-5.859-1.718-1.641 0-3.151.351-4.531 1.054-1.38.677-2.565 1.693-3.555 3.047-.989 1.354-1.758 3.008-2.305 4.961-.546 1.953-.82 4.206-.82 6.758v1.641c0 2.005.274 3.893.82 5.664.573 1.744 1.394 3.281 2.461 4.609a11.797 11.797 0 003.946 3.125c1.562.755 3.333 1.133 5.312 1.133 2.552 0 4.714-.521 6.485-1.563 1.77-1.041 3.32-2.435 4.648-4.179l4.375 3.476c-.911 1.38-2.07 2.695-3.477 3.945-1.406 1.25-3.138 2.266-5.195 3.047-2.031.782-4.44 1.172-7.226 1.172zM797.539 370v60h-7.266v-60h7.266zm25.82 17.734l-18.437 19.727-10.313 10.703-.586-7.695 7.383-8.828 13.125-13.907h8.828zM816.758 430l-15.078-20.156 3.75-6.446L825.273 430h-8.515zm39.297 0l11.054-56.875h5.625L861.641 430h-5.586zm15.898 0l11.094-56.875h5.586L877.539 430h-5.586zm21.445-35.195h-40.625v-5.43h40.625v5.43zm-2.929 19.179h-40.664v-5.39h40.664v5.39zm44.57.625c0 3.464-.807 6.407-2.422 8.829-1.588 2.395-3.75 4.218-6.484 5.468-2.709 1.25-5.768 1.875-9.18 1.875-3.411 0-6.484-.625-9.219-1.875-2.734-1.25-4.895-3.073-6.484-5.468-1.589-2.422-2.383-5.365-2.383-8.829 0-2.265.43-4.336 1.289-6.211a15.058 15.058 0 013.711-4.96c1.615-1.407 3.516-2.487 5.703-3.243 2.214-.781 4.649-1.172 7.305-1.172 3.49 0 6.602.678 9.336 2.032 2.734 1.328 4.883 3.164 6.445 5.507 1.589 2.344 2.383 5.027 2.383 8.047zm-7.266-.156c0-2.109-.455-3.971-1.367-5.586a9.669 9.669 0 00-3.828-3.828c-1.64-.911-3.542-1.367-5.703-1.367-2.214 0-4.128.456-5.742 1.367-1.589.912-2.826 2.188-3.711 3.828-.886 1.615-1.328 3.477-1.328 5.586 0 2.188.429 4.063 1.289 5.625.885 1.537 2.135 2.721 3.75 3.555 1.64.807 3.581 1.211 5.82 1.211 2.24 0 4.167-.404 5.781-1.211 1.615-.834 2.852-2.018 3.711-3.555.886-1.562 1.328-3.437 1.328-5.625zm5.938-26.523c0 2.76-.729 5.247-2.188 7.461-1.458 2.213-3.45 3.958-5.976 5.234-2.526 1.276-5.391 1.914-8.594 1.914-3.255 0-6.159-.638-8.711-1.914-2.526-1.276-4.505-3.021-5.937-5.234-1.433-2.214-2.149-4.701-2.149-7.461 0-3.308.716-6.12 2.149-8.438 1.458-2.318 3.45-4.088 5.976-5.312 2.526-1.224 5.404-1.836 8.633-1.836 3.255 0 6.146.612 8.672 1.836 2.526 1.224 4.505 2.994 5.937 5.312 1.459 2.318 2.188 5.13 2.188 8.438zm-7.227.117c0-1.901-.403-3.581-1.211-5.039a8.879 8.879 0 00-3.359-3.438c-1.432-.859-3.099-1.289-5-1.289-1.901 0-3.568.404-5 1.211-1.406.781-2.513 1.901-3.32 3.36-.782 1.458-1.172 3.19-1.172 5.195 0 1.953.39 3.659 1.172 5.117a8.604 8.604 0 003.359 3.398c1.432.808 3.099 1.211 5 1.211 1.901 0 3.555-.403 4.961-1.211a8.604 8.604 0 003.359-3.398c.808-1.458 1.211-3.164 1.211-5.117z" fill="#fff"/><rect x="240" y="570" width="1440" height="900" rx="20" fill="#282828"/><g clip-path="url(#prefix__clip1_142_1270)"><path fill="#09090A" d="M240 570h1440v900H240z"/><g opacity=".5" fill="#27272A"><rect x="320" y="758" width="1280" height="124" rx="8"/><rect x="320" y="914" width="402.286" height="310" rx="8"/><rect x="320" y="1256" width="402.286" height="310" rx="8"/><rect x="758.857" y="1256" width="402.286" height="310" rx="8"/><rect x="758.857" y="914" width="402.286" height="310" rx="8"/><rect x="1197.71" y="914" width="402.286" height="310" rx="8"/></g><path fill="#27272A" d="M240 570h1440v140H240z"/><rect x="320" y="608" width="256" height="64" rx="9.143" fill="#3F3F46"/><circle cx="1560" cy="640" r="40" fill="#3F3F46"/><rect x="748" y="628" width="120" height="24" rx="12" fill="#3F3F46"/><rect x="900" y="628" width="120" height="24" rx="12" fill="#3F3F46"/><rect x="1052" y="628" width="120" height="24" rx="12" fill="#3F3F46"/><g filter="url(#prefix__filter1_b_142_1270)"><path fill="#000" fill-opacity=".5" d="M240 570h1440v900H240z"/></g><g filter="url(#prefix__filter2_d_142_1270)"><path d="M992 751.987c0-13.248 10.74-23.987 23.99-23.987h455.75c13.25 0 23.99 10.739 23.99 23.987V1099.8c0 13.25-10.74 23.99-23.99 23.99h-455.75c-13.25 0-23.99-10.74-23.99-23.99V751.987z" fill="#18181B"/><path d="M1111.79 780.987h-7.06v-21.806h7.29c2.13 0 3.97.436 5.5 1.309 1.53.866 2.71 2.112 3.53 3.738.82 1.618 1.23 3.559 1.23 5.824 0 2.271-.42 4.223-1.25 5.856-.82 1.633-2.01 2.889-3.57 3.769-1.56.873-3.45 1.31-5.67 1.31zm-3.77-2.875h3.59c1.66 0 3.04-.312 4.14-.937a5.874 5.874 0 002.47-2.736c.55-1.2.82-2.662.82-4.387 0-1.711-.27-3.162-.82-4.355-.54-1.193-1.34-2.098-2.41-2.715-1.08-.618-2.41-.926-4-.926h-3.79v16.056zm25.14 3.205c-1.61 0-2.99-.344-4.16-1.033-1.16-.695-2.05-1.671-2.68-2.928-.63-1.263-.94-2.743-.94-4.44 0-1.675.31-3.152.94-4.429.63-1.278 1.51-2.275 2.64-2.992 1.13-.717 2.46-1.076 3.98-1.076.92 0 1.82.153 2.68.458.87.305 1.65.785 2.34 1.438.68.653 1.23 1.501 1.63 2.544.39 1.037.59 2.297.59 3.78v1.129h-13v-2.385h9.88c0-.838-.17-1.58-.51-2.226a3.845 3.845 0 00-1.44-1.543c-.61-.377-1.32-.565-2.15-.565-.89 0-1.67.22-2.34.66a4.407 4.407 0 00-1.53 1.704 4.863 4.863 0 00-.54 2.268v1.863c0 1.093.2 2.023.58 2.79.39.767.93 1.352 1.63 1.757.69.397 1.51.596 2.44.596.6 0 1.15-.085 1.65-.255.49-.178.92-.441 1.29-.788.36-.348.63-.778.83-1.289l3.01.543a5.488 5.488 0 01-1.3 2.332c-.62.66-1.39 1.175-2.33 1.544-.93.362-1.99.543-3.19.543zm10.55-.33v-16.355h3.19v16.355h-3.19zm1.61-18.878c-.55 0-1.03-.185-1.43-.554a1.795 1.795 0 01-.58-1.342c0-.525.19-.972.58-1.341.4-.376.88-.564 1.43-.564.56 0 1.03.188 1.42.564.4.369.59.816.59 1.341 0 .519-.19.966-.59 1.342-.39.369-.86.554-1.42.554zm8.37 2.523l3.61 6.368 3.64-6.368h3.49l-5.1 8.178 5.14 8.177h-3.48l-3.69-6.112-3.67 6.112h-3.49l5.09-8.177-5.03-8.178h3.49zm20.41 16.685c-1.61 0-3-.344-4.16-1.033-1.16-.695-2.06-1.671-2.69-2.928-.62-1.263-.93-2.743-.93-4.44 0-1.675.31-3.152.93-4.429.63-1.278 1.52-2.275 2.64-2.992 1.14-.717 2.47-1.076 3.99-1.076.92 0 1.81.153 2.68.458a6.47 6.47 0 012.33 1.438c.69.653 1.23 1.501 1.63 2.544.4 1.037.6 2.297.6 3.78v1.129h-13v-2.385h9.88c0-.838-.17-1.58-.51-2.226a3.915 3.915 0 00-1.44-1.543c-.61-.377-1.33-.565-2.15-.565-.9 0-1.68.22-2.35.66a4.407 4.407 0 00-1.53 1.704 4.98 4.98 0 00-.53 2.268v1.863c0 1.093.19 2.023.57 2.79.39.767.94 1.352 1.63 1.757.7.397 1.51.596 2.44.596.6 0 1.16-.085 1.65-.255.5-.178.93-.441 1.29-.788.36-.348.64-.778.83-1.289l3.01.543a5.47 5.47 0 01-1.29 2.332c-.62.66-1.4 1.175-2.34 1.544-.93.362-1.99.543-3.18.543zm30.74-12.692l-2.89.511c-.12-.369-.31-.72-.57-1.054-.26-.334-.6-.607-1.04-.82-.44-.213-.99-.319-1.65-.319-.91 0-1.66.202-2.26.607-.61.397-.91.912-.91 1.544 0 .546.21.986.61 1.32.4.334 1.06.607 1.96.82l2.6.596c1.5.348 2.62.884 3.36 1.608.74.724 1.11 1.664 1.11 2.821 0 .98-.29 1.853-.85 2.62-.56.759-1.35 1.356-2.36 1.789-1 .433-2.16.649-3.48.649-1.83 0-3.32-.39-4.48-1.171-1.16-.788-1.87-1.906-2.13-3.354l3.08-.469c.19.802.58 1.409 1.18 1.821.6.405 1.37.607 2.33.607 1.04 0 1.88-.216 2.5-.649.63-.441.94-.977.94-1.608 0-.511-.19-.941-.57-1.289-.38-.347-.96-.61-1.74-.788l-2.77-.606c-1.53-.348-2.65-.902-3.38-1.662-.73-.759-1.09-1.721-1.09-2.885 0-.965.27-1.81.81-2.534.54-.724 1.28-1.289 2.23-1.693.96-.412 2.05-.618 3.27-.618 1.77 0 3.16.384 4.18 1.15 1.01.76 1.68 1.778 2.01 3.056zm10.87 12.692c-1.61 0-3-.344-4.17-1.033-1.15-.695-2.05-1.671-2.68-2.928-.62-1.263-.94-2.743-.94-4.44 0-1.675.32-3.152.94-4.429.63-1.278 1.51-2.275 2.64-2.992 1.14-.717 2.47-1.076 3.98-1.076.93 0 1.82.153 2.69.458.86.305 1.64.785 2.33 1.438.69.653 1.23 1.501 1.63 2.544.4 1.037.59 2.297.59 3.78v1.129h-13v-2.385h9.89c0-.838-.18-1.58-.52-2.226a3.891 3.891 0 00-1.43-1.543c-.61-.377-1.33-.565-2.15-.565-.9 0-1.68.22-2.35.66a4.407 4.407 0 00-1.53 1.704 4.98 4.98 0 00-.53 2.268v1.863c0 1.093.19 2.023.57 2.79.39.767.94 1.352 1.63 1.757.7.397 1.51.596 2.44.596.6 0 1.15-.085 1.65-.255.5-.178.93-.441 1.29-.788.36-.348.64-.778.83-1.289l3.01.543a5.385 5.385 0 01-1.3 2.332c-.61.66-1.39 1.175-2.33 1.544-.93.362-1.99.543-3.18.543zm20.91-7.113v-9.572h3.19v16.355h-3.13v-2.832h-.17c-.38.873-.98 1.6-1.81 2.183-.82.574-1.85.862-3.08.862-1.05 0-1.98-.231-2.79-.692-.8-.469-1.43-1.161-1.89-2.076-.46-.916-.68-2.048-.68-3.397v-10.403h3.18v10.02c0 1.114.31 2.001.93 2.662.61.66 1.42.99 2.4.99.6 0 1.19-.149 1.78-.447.6-.299 1.09-.749 1.48-1.353.4-.603.59-1.37.59-2.3zm23.19-9.572v2.556h-9.24v-2.556h9.24zm-6.71 16.355v-18.25c0-1.022.22-1.87.67-2.545a4.121 4.121 0 011.78-1.522 5.678 5.678 0 012.41-.512c.63 0 1.18.054 1.63.16.46.1.8.192 1.02.277l-.75 2.577c-.15-.043-.34-.093-.57-.149a3.334 3.334 0 00-.86-.096c-.77 0-1.32.192-1.66.575-.32.383-.49.937-.49 1.661v17.824h-3.18zm16.4.33c-1.61 0-3-.344-4.17-1.033-1.15-.695-2.05-1.671-2.68-2.928-.62-1.263-.94-2.743-.94-4.44 0-1.675.32-3.152.94-4.429.63-1.278 1.51-2.275 2.64-2.992 1.14-.717 2.46-1.076 3.98-1.076.93 0 1.82.153 2.69.458.86.305 1.64.785 2.33 1.438.69.653 1.23 1.501 1.63 2.544.4 1.037.59 2.297.59 3.78v1.129h-13v-2.385h9.88c0-.838-.17-1.58-.51-2.226a3.891 3.891 0 00-1.43-1.543c-.61-.377-1.33-.565-2.16-.565-.89 0-1.67.22-2.34.66a4.407 4.407 0 00-1.53 1.704c-.36.696-.53 1.452-.53 2.268v1.863c0 1.093.19 2.023.57 2.79.39.767.94 1.352 1.63 1.757.7.397 1.51.596 2.44.596.6 0 1.15-.085 1.65-.255.5-.178.93-.441 1.29-.788.36-.348.64-.778.83-1.289l3.01.543a5.385 5.385 0 01-1.3 2.332c-.61.66-1.39 1.175-2.33 1.544-.93.362-1.99.543-3.18.543zm17.6 0c-1.62 0-3-.344-4.17-1.033-1.16-.695-2.05-1.671-2.68-2.928-.63-1.263-.94-2.743-.94-4.44 0-1.675.31-3.152.94-4.429.63-1.278 1.51-2.275 2.64-2.992 1.14-.717 2.46-1.076 3.98-1.076.92 0 1.82.153 2.68.458.87.305 1.65.785 2.34 1.438.69.653 1.23 1.501 1.63 2.544.39 1.037.59 2.297.59 3.78v1.129h-13v-2.385h9.88c0-.838-.17-1.58-.51-2.226a3.845 3.845 0 00-1.44-1.543c-.61-.377-1.32-.565-2.15-.565-.89 0-1.67.22-2.34.66a4.407 4.407 0 00-1.53 1.704 4.863 4.863 0 00-.54 2.268v1.863c0 1.093.2 2.023.58 2.79.39.767.93 1.352 1.63 1.757.69.397 1.51.596 2.44.596.6 0 1.15-.085 1.65-.255.49-.178.92-.441 1.29-.788.36-.348.63-.778.83-1.289l3.01.543a5.385 5.385 0 01-1.3 2.332c-.62.66-1.39 1.175-2.33 1.544-.93.362-1.99.543-3.18.543zm16.67-.011c-1.32 0-2.5-.337-3.54-1.011-1.03-.682-1.84-1.65-2.43-2.907-.58-1.263-.87-2.779-.87-4.546 0-1.768.3-3.28.88-4.536.6-1.257 1.42-2.219 2.45-2.886 1.04-.667 2.21-1.001 3.53-1.001 1.01 0 1.83.171 2.45.511.62.334 1.1.724 1.44 1.172.35.447.62.841.81 1.181h.2v-8.102h3.18v21.806h-3.11v-2.545h-.27c-.19.348-.46.746-.83 1.193-.35.447-.84.837-1.47 1.171-.62.334-1.43.5-2.42.5zm.7-2.715c.92 0 1.69-.241 2.32-.724.64-.49 1.12-1.167 1.45-2.033.33-.866.5-1.874.5-3.024 0-1.136-.16-2.13-.49-2.982-.33-.852-.81-1.515-1.44-1.991-.63-.475-1.41-.713-2.34-.713-.96 0-1.76.248-2.4.745-.64.497-1.12 1.175-1.44 2.034-.32.859-.48 1.828-.48 2.907 0 1.093.16 2.076.49 2.949.32.873.81 1.565 1.44 2.076.65.504 1.45.756 2.39.756zm12.2 2.396v-21.806h3.18v8.102h.19c.19-.34.45-.734.8-1.181.35-.448.83-.838 1.45-1.172.62-.34 1.43-.511 2.45-.511 1.32 0 2.5.334 3.53 1.001 1.04.667 1.85 1.629 2.44 2.886.6 1.256.9 2.768.9 4.536 0 1.767-.3 3.283-.89 4.546-.59 1.257-1.39 2.225-2.42 2.907-1.03.674-2.21 1.011-3.53 1.011-.99 0-1.8-.166-2.44-.5-.62-.334-1.11-.724-1.47-1.171-.35-.447-.62-.845-.82-1.193h-.26v2.545h-3.11zm3.12-8.177c0 1.15.17 2.158.5 3.024.33.866.82 1.543 1.45 2.033.63.483 1.4.724 2.32.724.95 0 1.74-.252 2.38-.756.64-.511 1.13-1.203 1.45-2.076.34-.873.5-1.856.5-2.949 0-1.079-.16-2.048-.49-2.907-.32-.859-.8-1.537-1.45-2.034-.63-.497-1.43-.745-2.39-.745-.92 0-1.71.238-2.34.713-.64.476-1.11 1.139-1.44 1.991-.33.852-.49 1.846-.49 2.982zm20.15 8.539c-1.03 0-1.97-.192-2.81-.575-.84-.39-1.5-.955-1.99-1.693-.48-.738-.72-1.643-.72-2.715 0-.923.17-1.682.53-2.279.35-.596.83-1.068 1.44-1.416.6-.348 1.27-.61 2.02-.788.74-.177 1.5-.312 2.28-.404l2.38-.277c.61-.078 1.06-.202 1.33-.373.28-.17.42-.447.42-.83v-.075c0-.93-.26-1.65-.79-2.161-.52-.511-1.29-.767-2.32-.767-1.07 0-1.92.238-2.53.713-.62.469-1.04.991-1.27 1.566l-2.99-.682c.35-.994.87-1.796 1.55-2.406a6.293 6.293 0 012.38-1.342 9.22 9.22 0 012.82-.426c.65 0 1.34.078 2.07.235.74.149 1.43.425 2.07.83.64.405 1.17.983 1.59 1.736.41.745.61 1.714.61 2.906v10.861h-3.11v-2.236h-.12c-.21.412-.52.816-.93 1.214-.41.397-.94.727-1.59.99-.64.263-1.42.394-2.32.394zm.69-2.555c.88 0 1.64-.174 2.26-.522.63-.348 1.11-.802 1.44-1.363.33-.568.5-1.175.5-1.821v-2.108c-.11.114-.33.22-.66.319-.32.093-.69.174-1.1.245-.41.064-.81.125-1.2.181-.39.05-.72.093-.98.128-.62.078-1.18.209-1.69.394-.51.185-.91.451-1.22.799-.3.34-.44.795-.44 1.363 0 .787.29 1.384.87 1.788.58.398 1.32.597 2.22.597zm18.51 2.523c-1.58 0-2.94-.358-4.09-1.075-1.13-.724-2.01-1.722-2.62-2.992-.61-1.271-.91-2.726-.91-4.366 0-1.661.31-3.127.94-4.397.62-1.278 1.5-2.275 2.64-2.992 1.13-.717 2.47-1.076 4.01-1.076 1.24 0 2.35.231 3.32.692.97.455 1.76 1.094 2.36 1.917.6.823.96 1.785 1.07 2.885h-3.1c-.17-.766-.56-1.426-1.17-1.98-.6-.554-1.41-.831-2.43-.831-.88 0-1.66.235-2.33.703-.66.462-1.17 1.122-1.54 1.981-.37.852-.56 1.859-.56 3.024 0 1.192.19 2.221.55 3.087.36.866.87 1.537 1.53 2.013.67.475 1.45.713 2.35.713.61 0 1.15-.11 1.64-.33.5-.227.92-.55 1.25-.969.34-.419.58-.923.71-1.512h3.1a6.035 6.035 0 01-1.03 2.833c-.58.83-1.35 1.483-2.31 1.959-.96.475-2.09.713-3.38.713zm13.05-5.877l-.02-3.887h.56l6.51-6.921h3.81l-7.43 7.879h-.5l-2.93 2.929zm-2.92 5.547v-21.806h3.18v21.806h-3.18zm10.32 0l-5.85-7.773 2.19-2.225 7.57 9.998h-3.91z" fill="#F4F4F5"/><g clip-path="url(#prefix__clip2_142_1270)"><path d="M1015.99 848.042c0-6.624 5.37-11.993 11.99-11.993h120.03c6.62 0 11.99 5.369 11.99 11.993v143.922c0 6.624-5.37 11.996-11.99 11.996h-120.03c-6.62 0-11.99-5.372-11.99-11.996V848.042z" fill="#27272A"/><path d="M1072.88 875.018c1.5-1.499.37-5.997-2.16-5.997-2.53 0-2.34 2.998-.84 2.998s1.5 2.999 1.5 4.498 1.5-1.499 1.5-1.499zm-6.27 2.578c1.49-1.499.37-5.996-2.16-5.996-2.53 0-2.34 2.998-.84 2.998s1.5 2.998 1.5 4.498c0 1.499 1.5-1.5 1.5-1.5z" fill="#AA8DD8"/><path d="M1106.15 918.278c.28 1.212 1.84 3.419 3.04 3.135 1.21-.285 1.62-2.955 1.33-4.163a2.241 2.241 0 00-2.7-1.675 2.24 2.24 0 00-1.67 2.703zm-8.15.973c0 1.245 1.02 3.745 2.26 3.741 1.24-.006 2.24-2.514 2.24-3.757a2.257 2.257 0 00-2.26-2.241 2.253 2.253 0 00-2.24 2.257zm-7.9-3.667c-.49 1.146-.55 3.843.59 4.333 1.15.486 3.06-1.42 3.54-2.564a2.25 2.25 0 00-1.18-2.953 2.248 2.248 0 00-2.95 1.184zm-7.54-16.551c-1.22.258-3.46 1.759-3.21 2.973.26 1.215 2.91 1.685 4.13 1.429a2.252 2.252 0 001.74-2.664 2.251 2.251 0 00-2.66-1.738zm-3.06-7.496c-1.22.258-3.46 1.759-3.21 2.973.26 1.215 2.92 1.685 4.14 1.429a2.26 2.26 0 001.74-2.664 2.256 2.256 0 00-2.67-1.738z" fill="#744EAA"/><path d="M1102.6 919.994c4.25 0 7.39-1.315 7.9-1.54 3.4-1.514 4.94-5.501 3.42-8.904-1.49-3.373-5.42-4.91-8.8-3.469-.2.075-2.69.973-5.01-.108-2.78-1.291-4.49-4.961-5.44-7.809-.22-.645-.58-1.91-1.03-3.472-2.8-9.702-4.25-12.421-5.97-14.722-5.56-7.423-14.38-7.94-18.72-7.07a6.747 6.747 0 002.65 13.23c.25-.039 3.31-.459 5.14 1.752.96 1.93 3.11 7.688 3.94 10.546.52 1.797.94 3.254 1.19 3.998 2.66 7.971 6.99 13.332 12.9 15.935a19.24 19.24 0 007.83 1.633z" fill="#9266CC"/><path d="M1071.78 878.016a1.498 1.498 0 100-2.998 1.498 1.498 0 100 2.998z" fill="#202024"/><path d="M1108.12 918.44a1.502 1.502 0 01-1.45-1.899c1.14-4.081-1.15-6.809-1.17-6.836a1.497 1.497 0 112.27-1.954c.14.161 3.35 3.988 1.79 9.59a1.497 1.497 0 01-1.44 1.099zm-10.79-.844c-.37 0-.74-.133-1.03-.404a1.51 1.51 0 01-.07-2.12c2.23-2.38 2.18-6.286 2.18-6.327a1.496 1.496 0 011.45-1.541c.82-.008 1.52.628 1.55 1.457 0 .209.11 5.153-2.99 8.462a1.48 1.48 0 01-1.09.473zm-12.81-13.037c-.72 0-1.35-.52-1.48-1.254-.13-.816.42-1.59 1.24-1.723 4.61-.765 7.16-3.564 7.18-3.592.55-.615 1.5-.673 2.11-.126.62.547.68 1.489.14 2.108-.13.148-3.23 3.62-8.94 4.566-.09.015-.17.021-.25.021zm4.38 7.282a1.5 1.5 0 01-.45-2.928c4.03-1.279 5.81-4.243 5.83-4.273a1.497 1.497 0 012.05-.535c.72.418.96 1.339.54 2.051-.1.162-2.39 3.992-7.52 5.613-.15.049-.3.072-.45.072zm-6.92-15.996c-.75 0-1.39-.554-1.49-1.312-.1-.822.48-1.571 1.3-1.676 4.03-.51 6.98-2.955 7.01-2.981a1.5 1.5 0 011.94 2.288c-.15.125-3.63 3.042-8.57 3.667-.07.009-.13.014-.19.014zm-2.73-7.147c-.64 0-1.23-.409-1.44-1.051-.24-.79.2-1.631.99-1.88 4.69-1.474 6.37-4.036 6.44-4.144a1.5 1.5 0 012.06-.467c.7.437.92 1.347.49 2.047-.09.146-2.26 3.592-8.1 5.426-.15.046-.3.069-.44.069z" fill="#744EAA"/><path d="M1042.22 963.984v-15.265h5.44c1.19 0 2.17.216 2.95.649.78.432 1.37 1.023 1.75 1.774.39.745.59 1.585.59 2.519 0 .939-.2 1.784-.59 2.534-.39.745-.98 1.337-1.76 1.774-.78.432-1.76.648-2.95.648h-3.74v-1.952h3.54c.75 0 1.35-.13 1.82-.388.47-.263.81-.621 1.03-1.073.22-.452.33-.967.33-1.543 0-.577-.11-1.088-.33-1.536a2.325 2.325 0 00-1.04-1.05c-.46-.254-1.08-.381-1.84-.381h-2.9v13.29h-2.3zm13.25 0v-11.449h2.15v1.819h.12a2.8 2.8 0 011.1-1.453 3.196 3.196 0 011.81-.537 9.409 9.409 0 01.94.052v2.132a3.78 3.78 0 00-.47-.082 4.58 4.58 0 00-.69-.052c-.53 0-1 .111-1.41.335-.41.219-.73.524-.97.917-.24.387-.35.83-.35 1.327v6.991h-2.23zm12.46.231c-1.07 0-2.01-.246-2.81-.738-.8-.492-1.42-1.18-1.86-2.065-.44-.884-.66-1.918-.66-3.1 0-1.188.22-2.226.66-3.116.44-.889 1.06-1.58 1.86-2.072s1.74-.738 2.81-.738c1.08 0 2.01.246 2.81.738.8.492 1.43 1.183 1.87 2.072.44.89.66 1.928.66 3.116 0 1.182-.22 2.216-.66 3.1a4.974 4.974 0 01-1.87 2.065c-.8.492-1.73.738-2.81.738zm.01-1.871c.7 0 1.27-.184 1.73-.552.46-.367.8-.857 1.01-1.468.23-.611.34-1.284.34-2.02 0-.73-.11-1.401-.34-2.012-.21-.616-.55-1.111-1.01-1.483-.46-.373-1.03-.559-1.73-.559s-1.28.186-1.74.559c-.46.372-.8.867-1.02 1.483a5.902 5.902 0 00-.33 2.012c0 .736.11 1.409.33 2.02.22.611.56 1.101 1.02 1.468.46.368 1.04.552 1.74.552zm8 1.64v-15.265h2.23v5.672h.13c.13-.238.32-.514.56-.827.24-.313.58-.586 1.01-.82.44-.238 1.01-.358 1.72-.358.92 0 1.75.234 2.47.701.73.467 1.3 1.14 1.71 2.02.42.879.62 1.938.62 3.175 0 1.237-.2 2.298-.61 3.183-.42.879-.98 1.557-1.7 2.034-.72.472-1.55.708-2.47.708-.7 0-1.26-.116-1.71-.35-.43-.233-.78-.507-1.03-.82a6.517 6.517 0 01-.57-.835h-.19v1.782h-2.17zm2.18-5.724c0 .805.12 1.51.35 2.116.24.607.57 1.081 1.02 1.424.44.338.98.507 1.62.507.67 0 1.22-.177 1.67-.529.45-.358.78-.843 1.01-1.454.24-.611.35-1.299.35-2.064 0-.756-.11-1.434-.34-2.035-.22-.601-.56-1.076-1.01-1.424-.45-.348-1.01-.521-1.68-.521-.65 0-1.19.166-1.64.499-.44.333-.78.797-1.01 1.394-.22.596-.34 1.292-.34 2.087zm13.01-9.541v15.265h-2.23v-15.265h2.23zm7.93 15.496c-1.13 0-2.1-.241-2.92-.723-.81-.487-1.43-1.17-1.87-2.05-.44-.884-.66-1.92-.66-3.108 0-1.173.22-2.206.66-3.1.44-.895 1.05-1.593 1.84-2.095.8-.502 1.73-.753 2.79-.753.65 0 1.27.107 1.88.321.61.214 1.15.549 1.63 1.006.48.457.86 1.051 1.14 1.781.28.726.42 1.608.42 2.646v.79h-9.1v-1.669h6.92c0-.586-.12-1.106-.36-1.558a2.747 2.747 0 00-1.01-1.081c-.43-.263-.93-.395-1.5-.395-.63 0-1.18.154-1.64.462-.47.304-.82.701-1.08 1.193a3.421 3.421 0 00-.37 1.588v1.304c0 .765.13 1.416.4 1.953.28.536.66.946 1.14 1.229.49.279 1.06.418 1.71.418.42 0 .81-.06 1.16-.179.34-.124.64-.308.9-.552.25-.243.44-.544.58-.901l2.11.38a3.803 3.803 0 01-.91 1.632c-.43.462-.98.822-1.63 1.081-.65.253-1.4.38-2.23.38zm7.38-.231v-11.449h2.14v1.864h.14c.24-.631.63-1.123 1.17-1.476.54-.358 1.19-.537 1.95-.537s1.4.179 1.92.537c.52.358.91.85 1.16 1.476h.12c.27-.611.7-1.098 1.3-1.461.6-.368 1.31-.552 2.13-.552 1.04 0 1.89.326 2.54.977.66.651.99 1.632.99 2.944v7.677h-2.22v-7.468c0-.776-.21-1.337-.64-1.685-.42-.348-.92-.522-1.51-.522-.73 0-1.29.224-1.69.671-.4.442-.61 1.011-.61 1.707v7.297h-2.22v-7.61c0-.621-.19-1.121-.58-1.498-.39-.378-.89-.567-1.51-.567-.42 0-.81.112-1.17.336a2.5 2.5 0 00-.86.916c-.21.393-.32.848-.32 1.364v7.059h-2.23zm21.88.253c-.72 0-1.38-.134-1.96-.402a3.303 3.303 0 01-1.4-1.185c-.34-.517-.5-1.151-.5-1.901 0-.646.12-1.178.37-1.595.25-.417.58-.748 1-.991.43-.244.9-.428 1.42-.552.52-.124 1.05-.218 1.6-.283l1.66-.194c.43-.055.74-.141.94-.261.19-.119.29-.313.29-.581v-.052c0-.651-.19-1.156-.55-1.513-.37-.358-.91-.537-1.63-.537-.75 0-1.34.167-1.77.499-.43.328-.73.694-.89 1.096l-2.09-.477c.24-.696.61-1.257 1.08-1.684a4.472 4.472 0 011.67-.94 6.453 6.453 0 011.97-.298c.46 0 .94.055 1.45.164.52.105 1 .298 1.45.582.45.283.82.688 1.11 1.215.29.521.43 1.2.43 2.034v7.603h-2.17v-1.565h-.09c-.15.288-.36.571-.65.849-.29.279-.66.51-1.11.693-.45.184-1 .276-1.63.276zm.49-1.789c.61 0 1.14-.121 1.58-.365.44-.243.78-.561 1-.954.24-.397.35-.822.35-1.274v-1.476c-.07.079-.23.154-.46.223-.22.065-.48.122-.77.172-.28.045-.56.087-.84.127-.27.034-.5.064-.68.089-.44.055-.83.147-1.19.276-.35.129-.63.315-.85.559-.21.238-.31.556-.31.954 0 .551.2.969.61 1.252.41.278.93.417 1.56.417z" fill="#F4F4F5"/><path d="M1171.99 848.042c0-6.624 5.37-11.993 12-11.993h120.02c6.63 0 12 5.369 12 11.993v143.922c0 6.624-5.37 11.996-12 11.996h-120.02c-6.63 0-12-5.372-12-11.996V848.042z" fill="#27272A"/><path d="M1260.49 886.891c0 9.654-7.49 11.153-7.49 20.15 0 4.644-4.69 5.035-8.25 5.035-3.08 0-9.87-1.168-9.87-5.038 0-8.993-7.37-10.492-7.37-20.147 0-9.041 7.92-16.371 16.61-16.371 8.7 0 16.37 7.33 16.37 16.371z" fill="#FFD983"/><path d="M1250.25 919.034c0 1.241-3.35 3.748-6.25 3.748s-6.25-2.507-6.25-3.748 3.35-.75 6.25-.75 6.25-.491 6.25.75z" fill="#CCD6DD"/><path d="M1251.06 885.742a1.496 1.496 0 00-2.12 0l-4.94 4.936-4.94-4.936a1.496 1.496 0 00-2.12 0 1.508 1.508 0 000 2.119l5.56 5.558v15.87c0 .829.67 1.5 1.5 1.5s1.5-.671 1.5-1.5v-15.87l5.56-5.558c.58-.586.58-1.533 0-2.119z" fill="#FFCC4D"/><path d="M1253 916.785a3.005 3.005 0 01-3 2.999h-12c-1.65 0-3-1.344-3-2.999v-8.995h18v8.995z" fill="#99AAB5"/><path d="M1235 918.284c-.72 0-1.35-.52-1.47-1.253a1.491 1.491 0 011.23-1.724l17.99-2.998c.81-.147 1.59.415 1.72 1.232a1.49 1.49 0 01-1.23 1.724l-17.99 2.998c-.08.015-.17.021-.25.021zm0-5.996c-.72 0-1.35-.521-1.47-1.254a1.491 1.491 0 011.23-1.724l17.99-2.998c.81-.146 1.59.415 1.72 1.232a1.49 1.49 0 01-1.23 1.724l-17.99 2.999c-.08.015-.17.021-.25.021z" fill="#CCD6DD"/><path d="M1223.84 948.719v15.265h-2.31v-15.265h2.31zm7.46 15.488c-.93 0-1.75-.236-2.48-.708-.72-.477-1.29-1.155-1.7-2.034-.41-.885-.61-1.946-.61-3.183 0-1.237.21-2.296.62-3.175.42-.88.99-1.553 1.71-2.02.73-.467 1.55-.701 2.47-.701.71 0 1.28.12 1.71.358.44.234.78.507 1.02.82.24.313.43.589.57.827h.13v-5.672h2.23v15.265h-2.18v-1.782h-.18c-.14.244-.33.522-.59.835-.24.313-.59.587-1.02.82-.44.234-1.01.35-1.7.35zm.49-1.9c.64 0 1.18-.169 1.62-.507.45-.343.79-.817 1.02-1.424.23-.606.35-1.311.35-2.116 0-.795-.12-1.491-.35-2.087-.22-.597-.56-1.061-1-1.394-.44-.333-.99-.499-1.64-.499-.67 0-1.23.173-1.68.521-.45.348-.78.823-1.01 1.424-.23.601-.34 1.279-.34 2.035 0 .765.12 1.453.34 2.064.23.611.57 1.096 1.02 1.454.45.352 1.01.529 1.67.529zm13.29 1.908c-1.13 0-2.1-.241-2.91-.723a4.891 4.891 0 01-1.88-2.05c-.44-.884-.66-1.92-.66-3.108 0-1.173.22-2.206.66-3.1.44-.895 1.06-1.593 1.85-2.095.79-.502 1.72-.753 2.79-.753.64 0 1.27.107 1.87.321.61.214 1.15.549 1.64 1.006.48.457.86 1.051 1.14 1.781.28.726.41 1.608.41 2.646v.79h-9.1v-1.669h6.92c0-.586-.12-1.106-.36-1.558a2.723 2.723 0 00-1-1.081c-.43-.263-.93-.395-1.51-.395-.63 0-1.17.154-1.64.462a3.09 3.09 0 00-1.07 1.193 3.421 3.421 0 00-.37 1.588v1.304c0 .765.13 1.416.4 1.953.27.536.65.946 1.14 1.229.49.279 1.05.418 1.71.418.42 0 .8-.06 1.15-.179.35-.124.65-.308.9-.552.26-.243.45-.544.58-.901l2.11.38a3.803 3.803 0 01-.91 1.632c-.43.462-.97.822-1.63 1.081-.65.253-1.39.38-2.23.38zm7.39-.231v-11.449h2.23v11.449h-2.23zm1.12-13.215c-.39 0-.72-.129-1-.388a1.271 1.271 0 01-.41-.939c0-.367.14-.68.41-.939.28-.263.61-.395 1-.395s.72.132.99.395c.28.259.42.572.42.939 0 .363-.14.676-.42.939-.27.259-.6.388-.99.388zm7.44 13.468c-.73 0-1.39-.134-1.97-.402a3.364 3.364 0 01-1.4-1.185c-.33-.517-.5-1.151-.5-1.901 0-.646.12-1.178.37-1.595.25-.417.58-.748 1.01-.991.42-.244.89-.428 1.41-.552.52-.124 1.06-.218 1.6-.283l1.67-.194c.42-.055.73-.141.93-.261.19-.119.29-.313.29-.581v-.052c0-.651-.18-1.156-.55-1.513-.37-.358-.91-.537-1.63-.537-.75 0-1.34.167-1.77.499-.43.328-.72.694-.89 1.096l-2.09-.477c.25-.696.61-1.257 1.09-1.684a4.356 4.356 0 011.66-.94 6.453 6.453 0 011.97-.298c.46 0 .94.055 1.46.164.51.105.99.298 1.44.582.45.283.82.688 1.11 1.215.29.521.43 1.2.43 2.034v7.603h-2.17v-1.565h-.09c-.14.288-.36.571-.65.849-.29.279-.66.51-1.11.693-.45.184-.99.276-1.62.276zm.48-1.789c.62 0 1.14-.121 1.58-.365.44-.243.78-.561 1.01-.954.23-.397.35-.822.35-1.274v-1.476c-.08.079-.24.154-.47.223-.22.065-.48.122-.76.172-.29.045-.57.087-.85.127-.27.034-.5.064-.68.089a5.67 5.67 0 00-1.19.276c-.35.129-.63.315-.85.559-.2.238-.31.556-.31.954 0 .551.2.969.61 1.252.41.278.93.417 1.56.417z" fill="#F4F4F5"/><path d="M1328 848.042c0-6.624 5.37-11.993 11.99-11.993h120.03c6.62 0 11.99 5.369 11.99 11.993v143.922c0 6.624-5.37 11.996-11.99 11.996h-120.03c-6.62 0-11.99-5.372-11.99-11.996V848.042z" fill="#27272A"/><path d="M1426.99 888.323c0-5.796-4.7-10.494-10.49-10.494-1.75 0-3.4.435-4.85 1.19-3.12-4.238-8.13-7-13.8-7-7.69 0-14.2 5.068-16.37 12.048-3.99.925-6.96 4.489-6.96 8.754 0 4.466 3.26 8.163 7.53 8.864.32 5.921 5.21 10.625 11.21 10.625 3.26 0 6.19-1.399 8.25-3.617a11.192 11.192 0 008.24 3.617c6.21 0 11.25-5.033 11.25-11.244 0-1.064-.16-2.09-.44-3.066a10.49 10.49 0 006.43-9.677zM1380.52 921.305c2.48 0 4.49-2.013 4.49-4.497a4.494 4.494 0 10-8.99 0 4.495 4.495 0 004.5 4.497z" fill="#85C8F8"/><path d="M1386.59 956.352c0 1.629-.3 3.031-.9 4.203-.59 1.168-1.41 2.067-2.45 2.698-1.03.626-2.21.939-3.53.939-1.32 0-2.5-.313-3.54-.939-1.03-.631-1.85-1.533-2.44-2.705-.6-1.173-.9-2.572-.9-4.196 0-1.63.3-3.029.9-4.197.59-1.172 1.41-2.072 2.44-2.698 1.04-.631 2.22-.946 3.54-.946 1.32 0 2.5.315 3.53.946 1.04.626 1.86 1.526 2.45 2.698.6 1.168.9 2.567.9 4.197zm-2.29 0c0-1.243-.2-2.289-.6-3.138-.4-.855-.94-1.501-1.64-1.938-.69-.442-1.47-.664-2.35-.664-.88 0-1.66.222-2.35.664-.69.437-1.24 1.083-1.64 1.938-.4.849-.6 1.895-.6 3.138 0 1.242.2 2.29.6 3.145.4.85.95 1.495 1.64 1.938.69.437 1.47.656 2.35.656.88 0 1.66-.219 2.35-.656.7-.443 1.24-1.088 1.64-1.938.4-.855.6-1.903.6-3.145zm12.23 2.884v-6.701h2.24v11.449h-2.19v-1.983h-.12a3.636 3.636 0 01-1.27 1.528c-.58.403-1.3.604-2.16.604-.73 0-1.38-.162-1.95-.485-.56-.328-1-.812-1.32-1.453-.32-.641-.48-1.434-.48-2.378v-7.282h2.23v7.014c0 .78.21 1.401.65 1.863.43.462.99.694 1.68.694.42 0 .83-.105 1.24-.314a2.59 2.59 0 001.04-.946c.28-.422.42-.959.41-1.61zm10.57-6.701v1.789h-6.25v-1.789h6.25zm-4.57-2.742h2.23v10.829c0 .433.06.758.19.977.13.213.3.36.5.439.21.075.43.112.68.112.18 0 .33-.012.47-.037.13-.025.24-.045.31-.06l.4 1.841c-.13.05-.31.1-.55.149-.24.055-.53.085-.89.09-.59.01-1.14-.095-1.64-.313a2.783 2.783 0 01-1.23-1.014c-.32-.457-.47-1.031-.47-1.722v-11.291zm7.04 14.191v-11.449h2.15v1.819h.12c.21-.616.58-1.101 1.11-1.453a3.142 3.142 0 011.8-.537 9.409 9.409 0 01.95.052v2.132a4.049 4.049 0 00-.48-.082 4.58 4.58 0 00-.69-.052c-.52 0-.99.111-1.4.335-.41.219-.74.524-.97.917-.24.387-.36.83-.36 1.327v6.991h-2.23zm12.47.231c-1.08 0-2.01-.246-2.81-.738-.8-.492-1.42-1.18-1.87-2.065-.44-.884-.66-1.918-.66-3.1 0-1.188.22-2.226.66-3.116.45-.889 1.07-1.58 1.87-2.072s1.73-.738 2.81-.738c1.07 0 2.01.246 2.81.738.8.492 1.42 1.183 1.86 2.072.44.89.66 1.928.66 3.116 0 1.182-.22 2.216-.66 3.1-.44.885-1.06 1.573-1.86 2.065s-1.74.738-2.81.738zm.01-1.871c.69 0 1.27-.184 1.72-.552.46-.367.8-.857 1.02-1.468.22-.611.33-1.284.33-2.02 0-.73-.11-1.401-.33-2.012-.22-.616-.56-1.111-1.02-1.483-.45-.373-1.03-.559-1.72-.559-.71 0-1.29.186-1.75.559-.46.372-.8.867-1.02 1.483a5.902 5.902 0 00-.33 2.012c0 .736.11 1.409.33 2.02.22.611.56 1.101 1.02 1.468.46.368 1.04.552 1.75.552z" fill="#F4F4F5"/></g><path d="M1120.26 1095.03v-13.09h8.11v1.7h-6.14v3.99h5.56v1.69h-5.56v5.71h-1.97zm13.89.19c-.96 0-1.8-.2-2.5-.62-.69-.41-1.23-1-1.61-1.75-.37-.76-.56-1.65-.56-2.67 0-1 .19-1.89.56-2.65.38-.77.91-1.37 1.59-1.8.68-.43 1.48-.64 2.39-.64.55 0 1.09.09 1.61.27.52.18.98.47 1.4.86.41.39.74.9.97 1.53.24.62.36 1.38.36 2.27v.67h-7.8v-1.43h5.93c0-.5-.1-.94-.31-1.33-.2-.39-.49-.7-.86-.93-.37-.22-.8-.34-1.29-.34-.54 0-1 .14-1.4.4-.4.26-.71.6-.92 1.02-.22.42-.32.87-.32 1.36v1.12c0 .66.11 1.21.34 1.67.24.46.56.82.98 1.06.42.24.9.36 1.46.36.36 0 .69-.06.99-.16.3-.1.56-.26.77-.47.22-.21.39-.47.5-.77l1.81.32c-.14.54-.4 1-.78 1.4-.37.4-.84.71-1.4.93-.56.22-1.19.32-1.91.32zm6.33-.19v-9.82h1.91v9.82h-1.91zm.97-11.33c-.34 0-.62-.11-.86-.33-.23-.23-.35-.5-.35-.81 0-.31.12-.58.35-.8.24-.23.52-.34.86-.34.33 0 .61.11.85.34.23.22.35.49.35.8 0 .31-.12.58-.35.81-.24.22-.52.33-.85.33zm8.09 1.51v1.54h-5.36v-1.54h5.36zm-3.92-2.35h1.91v9.28c0 .38.06.65.17.84a.9.9 0 00.42.38c.18.06.38.09.59.09.15 0 .28-.01.4-.03.11-.02.2-.04.27-.05l.34 1.58c-.11.04-.27.08-.47.13-.21.04-.46.07-.77.07-.5.01-.97-.08-1.4-.26-.44-.19-.79-.48-1.06-.87-.27-.4-.4-.89-.4-1.48v-9.68zm10.06 12.36c-.92 0-1.72-.21-2.41-.63-.68-.42-1.21-1.01-1.59-1.77-.38-.76-.57-1.64-.57-2.66 0-1.01.19-1.9.57-2.67.38-.76.91-1.35 1.59-1.77.69-.42 1.49-.63 2.41-.63.92 0 1.73.21 2.41.63.69.42 1.22 1.01 1.6 1.77.38.77.57 1.66.57 2.67 0 1.02-.19 1.9-.57 2.66-.38.76-.91 1.35-1.6 1.77-.68.42-1.49.63-2.41.63zm.01-1.6c.6 0 1.09-.16 1.48-.47.39-.32.68-.74.87-1.26.19-.52.29-1.1.29-1.73 0-.63-.1-1.2-.29-1.73-.19-.53-.48-.95-.87-1.27-.39-.32-.88-.48-1.48-.48s-1.1.16-1.5.48c-.39.32-.68.74-.87 1.27-.19.53-.28 1.1-.28 1.73 0 .63.09 1.21.28 1.73.19.52.48.94.87 1.26.4.31.9.47 1.5.47zm15.59 1.6c-.95 0-1.76-.21-2.45-.64-.68-.44-1.2-1.03-1.57-1.8-.37-.76-.55-1.63-.55-2.62 0-.99.19-1.87.56-2.63.38-.77.91-1.37 1.59-1.8.68-.43 1.48-.64 2.4-.64.75 0 1.41.13 2 .41.58.27 1.05.66 1.41 1.15.36.49.58 1.07.65 1.73h-1.86a2.3 2.3 0 00-.71-1.19c-.36-.33-.84-.49-1.45-.49-.54 0-1 .14-1.4.42-.4.27-.71.67-.93 1.19-.22.51-.33 1.11-.33 1.81 0 .72.11 1.33.33 1.85.21.52.52.92.92 1.21.4.29.87.43 1.41.43.36 0 .69-.07.98-.2.3-.14.55-.33.75-.58.2-.25.35-.56.43-.91h1.86c-.07.64-.28 1.2-.62 1.7-.35.5-.81.89-1.39 1.18-.58.28-1.25.42-2.03.42zm10.21 0c-.92 0-1.72-.21-2.41-.63a4.207 4.207 0 01-1.59-1.77c-.38-.76-.57-1.64-.57-2.66 0-1.01.19-1.9.57-2.67.37-.76.91-1.35 1.59-1.77.69-.42 1.49-.63 2.41-.63.92 0 1.72.21 2.41.63.69.42 1.22 1.01 1.6 1.77.38.77.57 1.66.57 2.67 0 1.02-.19 1.9-.57 2.66-.38.76-.91 1.35-1.6 1.77-.69.42-1.49.63-2.41.63zm.01-1.6c.59 0 1.09-.16 1.48-.47.39-.32.68-.74.87-1.26.19-.52.29-1.1.29-1.73 0-.63-.1-1.2-.29-1.73-.19-.53-.48-.95-.87-1.27-.39-.32-.89-.48-1.48-.48-.6 0-1.1.16-1.5.48-.39.32-.68.74-.87 1.27-.19.53-.28 1.1-.28 1.73 0 .63.09 1.21.28 1.73.19.52.48.94.87 1.26.4.31.9.47 1.5.47zm6.7 1.41v-9.82h1.83v1.6h.12c.21-.54.54-.96 1.01-1.26.46-.31 1.02-.46 1.66-.46.66 0 1.21.15 1.65.46.45.3.78.72.99 1.26h.1c.24-.52.61-.94 1.12-1.25.51-.32 1.12-.47 1.83-.47.89 0 1.62.27 2.18.83.56.56.85 1.4.85 2.53v6.58h-1.91v-6.41c0-.66-.18-1.14-.55-1.44-.36-.3-.79-.45-1.29-.45-.62 0-1.11.2-1.45.58-.35.38-.52.87-.52 1.46v6.26h-1.9v-6.53c0-.53-.17-.96-.5-1.28-.33-.32-.77-.49-1.3-.49-.36 0-.7.1-1 .29-.3.19-.55.45-.74.79-.18.33-.27.72-.27 1.17v6.05h-1.91zm28.57.2l-6.56-6.57c-.53-.52-.88-1.13-1.05-1.82-.17-.7-.17-1.39.01-2.07.17-.69.52-1.29 1.04-1.81.53-.52 1.14-.87 1.82-1.04.68-.17 1.37-.17 2.05 0 .68.18 1.29.52 1.83 1.04l.86.85.87-.85c.54-.52 1.15-.86 1.83-1.04.68-.17 1.36-.17 2.04 0 .69.17 1.3.52 1.83 1.04.52.52.87 1.12 1.04 1.81.18.68.18 1.37 0 2.07-.17.69-.51 1.3-1.04 1.82l-6.57 6.57zm15.24 3.48v-13.5h1.87v1.59h.16c.11-.2.27-.44.48-.71.21-.26.5-.5.87-.7.37-.2.86-.3 1.47-.3.79 0 1.5.2 2.12.6.62.4 1.11.97 1.46 1.73.36.75.54 1.66.54 2.72 0 1.06-.18 1.97-.53 2.73-.36.75-.84 1.33-1.46 1.74-.62.41-1.32.61-2.11.61-.6 0-1.09-.1-1.47-.3-.37-.2-.67-.44-.88-.71-.21-.26-.38-.5-.49-.71h-.12v5.21h-1.91zm1.88-8.59c0 .69.1 1.29.3 1.81.2.52.49.93.87 1.22.37.29.84.44 1.39.44.57 0 1.05-.15 1.43-.46.38-.3.67-.72.87-1.24.2-.52.3-1.11.3-1.77 0-.65-.1-1.23-.3-1.74-.19-.52-.48-.93-.86-1.22-.39-.3-.87-.45-1.44-.45-.56 0-1.02.14-1.41.43-.38.28-.66.68-.86 1.19-.2.51-.29 1.11-.29 1.79zm13.46 5.1c-.97 0-1.8-.2-2.5-.62-.7-.41-1.23-1-1.61-1.75-.38-.76-.56-1.65-.56-2.67 0-1 .18-1.89.56-2.65.38-.77.91-1.37 1.58-1.8.68-.43 1.48-.64 2.39-.64.56 0 1.09.09 1.61.27.52.18.99.47 1.4.86.41.39.74.9.98 1.53.24.62.36 1.38.36 2.27v.67h-7.8v-1.43h5.92c0-.5-.1-.94-.3-1.33-.21-.39-.49-.7-.86-.93-.37-.22-.8-.34-1.29-.34-.54 0-1.01.14-1.41.4-.4.26-.7.6-.92 1.02-.21.42-.32.87-.32 1.36v1.12c0 .66.12 1.21.35 1.67.23.46.56.82.97 1.06.42.24.91.36 1.47.36.36 0 .69-.06.99-.16.29-.1.55-.26.77-.47.22-.21.38-.47.5-.77l1.81.32c-.15.54-.41 1-.78 1.4-.37.4-.84.71-1.4.93-.56.22-1.2.32-1.91.32zm8.24-13.28v13.09h-1.91v-13.09h1.91zm5.42 13.3c-.62 0-1.18-.11-1.68-.34-.51-.24-.91-.57-1.2-1.02-.29-.44-.43-.98-.43-1.63 0-.55.1-1.01.32-1.36.21-.36.5-.64.86-.85.36-.21.76-.37 1.21-.48.45-.1.9-.18 1.37-.24.59-.07 1.06-.12 1.43-.17.37-.04.63-.12.8-.22.16-.1.25-.27.25-.5v-.04c0-.56-.16-.99-.47-1.3-.32-.31-.78-.46-1.4-.46-.64 0-1.15.14-1.52.43-.36.28-.62.59-.76.94l-1.79-.41c.21-.6.52-1.08.93-1.44.41-.37.89-.64 1.42-.81.54-.17 1.1-.25 1.7-.25.39 0 .8.04 1.24.14.45.09.86.25 1.24.49.39.25.71.59.95 1.05.25.44.37 1.02.37 1.74v6.52h-1.86v-1.35h-.08c-.12.25-.31.49-.55.73-.25.24-.57.44-.96.6-.38.15-.85.23-1.39.23zm.42-1.53c.53 0 .98-.1 1.35-.31.38-.21.67-.48.86-.82.2-.34.3-.71.3-1.09v-1.27c-.06.07-.2.13-.39.19s-.41.11-.66.15c-.25.04-.49.07-.72.11-.24.03-.43.05-.59.08-.37.04-.71.12-1.02.23-.3.11-.54.27-.72.48-.18.21-.27.48-.27.82 0 .47.17.83.52 1.07.35.24.8.36 1.34.36zm11.88 1.32v-13.09h4.67c1.01 0 1.85.18 2.52.53.67.35 1.18.83 1.51 1.45.33.61.5 1.32.5 2.12s-.17 1.51-.51 2.12c-.33.6-.83 1.07-1.51 1.41-.66.34-1.51.5-2.52.5h-3.53v-1.69h3.35c.64 0 1.16-.1 1.56-.28.4-.18.7-.45.89-.8.19-.35.28-.77.28-1.26s-.1-.92-.29-1.28a1.85 1.85 0 00-.89-.83c-.4-.2-.92-.29-1.57-.29h-2.48v11.39h-1.98zm6.46-5.91l3.23 5.91h-2.24l-3.17-5.91h2.18zm9 6.1c-.92 0-1.73-.21-2.41-.63-.69-.42-1.22-1.01-1.6-1.77-.38-.76-.57-1.64-.57-2.66 0-1.01.19-1.9.57-2.67.38-.76.91-1.35 1.6-1.77.68-.42 1.49-.63 2.41-.63.92 0 1.72.21 2.4.63.69.42 1.22 1.01 1.6 1.77.38.77.57 1.66.57 2.67 0 1.02-.19 1.9-.57 2.66-.38.76-.91 1.35-1.6 1.77-.68.42-1.48.63-2.4.63zm0-1.6c.6 0 1.09-.16 1.48-.47.4-.32.69-.74.87-1.26.19-.52.29-1.1.29-1.73 0-.63-.1-1.2-.29-1.73-.18-.53-.47-.95-.87-1.27-.39-.32-.88-.48-1.48-.48s-1.1.16-1.49.48c-.39.32-.69.74-.88 1.27-.19.53-.28 1.1-.28 1.73 0 .63.09 1.21.28 1.73.19.52.49.94.88 1.26.39.31.89.47 1.49.47zm10.84 1.6c-.95 0-1.77-.21-2.46-.64-.68-.44-1.2-1.03-1.57-1.8-.37-.76-.55-1.63-.55-2.62 0-.99.19-1.87.56-2.63.38-.77.91-1.37 1.59-1.8.68-.43 1.48-.64 2.41-.64.74 0 1.41.13 1.99.41.58.27 1.05.66 1.41 1.15.36.49.58 1.07.65 1.73h-1.86c-.1-.46-.34-.85-.71-1.19-.36-.33-.84-.49-1.45-.49-.53 0-1 .14-1.4.42-.4.27-.71.67-.93 1.19-.22.51-.33 1.11-.33 1.81 0 .72.11 1.33.33 1.85.21.52.52.92.92 1.21.4.29.87.43 1.41.43.36 0 .69-.07.98-.2.3-.14.55-.33.75-.58.2-.25.35-.56.43-.91h1.86c-.07.64-.28 1.2-.62 1.7-.35.5-.81.89-1.39 1.18-.57.28-1.25.42-2.02.42zm7.83-3.52l-.02-2.33h.34l3.91-4.16h2.28l-4.46 4.73h-.3l-1.75 1.76zm-1.76 3.33v-13.09h1.91v13.09h-1.91zm6.2 0l-3.52-4.67 1.32-1.33 4.54 6h-2.34zm7.64.19c-.97 0-1.8-.2-2.5-.62-.69-.41-1.23-1-1.61-1.75-.37-.76-.56-1.65-.56-2.67 0-1 .19-1.89.56-2.65.38-.77.91-1.37 1.59-1.8.68-.43 1.47-.64 2.38-.64.56 0 1.09.09 1.61.27.52.18.99.47 1.4.86.42.39.74.9.98 1.53.24.62.36 1.38.36 2.27v.67h-7.8v-1.43h5.93c0-.5-.11-.94-.31-1.33-.2-.39-.49-.7-.86-.93-.37-.22-.8-.34-1.29-.34-.54 0-1.01.14-1.41.4-.39.26-.7.6-.92 1.02-.21.42-.32.87-.32 1.36v1.12c0 .66.12 1.21.35 1.67.23.46.56.82.97 1.06.42.24.91.36 1.47.36.36 0 .69-.06.99-.16.3-.1.55-.26.77-.47.22-.21.38-.47.5-.77l1.81.32c-.15.54-.41 1-.78 1.4-.37.4-.84.71-1.4.93-.56.22-1.2.32-1.91.32zm10.91-10.01v1.54h-5.36v-1.54h5.36zm-3.92-2.35h1.91v9.28c0 .38.05.65.16.84.11.18.26.31.43.38.18.06.37.09.58.09.16 0 .29-.01.4-.03.12-.02.21-.04.27-.05l.35 1.58c-.11.04-.27.08-.48.13-.2.04-.46.07-.76.07-.5.01-.97-.08-1.41-.26-.43-.19-.78-.48-1.05-.87-.27-.4-.4-.89-.4-1.48v-9.68zm13.23 4.75l-1.73.31c-.08-.23-.19-.44-.35-.64-.15-.2-.36-.36-.63-.49-.26-.13-.59-.19-.99-.19-.54 0-.99.12-1.35.36-.36.24-.54.55-.54.93 0 .33.12.59.36.79.24.2.64.37 1.18.49l1.56.36c.9.21 1.57.53 2.01.97.45.43.67 1 .67 1.69 0 .59-.17 1.11-.51 1.57-.34.46-.81.81-1.41 1.07-.61.26-1.3.39-2.09.39-1.1 0-2-.23-2.69-.7-.7-.47-1.12-1.14-1.28-2.01l1.85-.28c.11.48.35.84.7 1.09.36.24.83.36 1.4.36.63 0 1.13-.13 1.5-.39.38-.26.57-.58.57-.96 0-.31-.12-.56-.35-.77-.22-.21-.57-.37-1.04-.48l-1.66-.36c-.92-.21-1.59-.54-2.03-1-.44-.45-.65-1.03-.65-1.73 0-.58.16-1.08.48-1.52.33-.43.77-.77 1.34-1.01.57-.25 1.23-.37 1.97-.37 1.06 0 1.89.23 2.5.69.61.45 1.01 1.06 1.21 1.83zm6.52 7.61c-.97 0-1.8-.2-2.5-.62-.69-.41-1.23-1-1.61-1.75-.37-.76-.56-1.65-.56-2.67 0-1 .19-1.89.56-2.65.38-.77.91-1.37 1.58-1.8.69-.43 1.48-.64 2.39-.64.56 0 1.09.09 1.61.27.52.18.99.47 1.4.86.42.39.74.9.98 1.53.24.62.36 1.38.36 2.27v.67h-7.8v-1.43h5.93c0-.5-.11-.94-.31-1.33-.2-.39-.49-.7-.86-.93-.37-.22-.8-.34-1.29-.34-.54 0-1.01.14-1.41.4-.4.26-.7.6-.92 1.02-.21.42-.32.87-.32 1.36v1.12c0 .66.12 1.21.35 1.67.23.46.56.82.97 1.06.42.24.91.36 1.47.36.36 0 .69-.06.99-.16.3-.1.55-.26.77-.47.22-.21.38-.47.5-.77l1.81.32c-.15.54-.41 1-.78 1.4-.37.4-.84.71-1.4.93-.56.22-1.2.32-1.91.32zm9.18.02c-.62 0-1.18-.11-1.68-.34-.51-.24-.9-.57-1.2-1.02-.29-.44-.43-.98-.43-1.63 0-.55.1-1.01.32-1.36.21-.36.5-.64.86-.85.36-.21.77-.37 1.21-.48.45-.1.91-.18 1.37-.24.59-.07 1.07-.12 1.43-.17.37-.04.63-.12.8-.22.17-.1.25-.27.25-.5v-.04c0-.56-.16-.99-.47-1.3-.31-.31-.78-.46-1.4-.46-.64 0-1.15.14-1.52.43-.36.28-.62.59-.76.94l-1.79-.41c.21-.6.52-1.08.93-1.44.41-.37.89-.64 1.43-.81.53-.17 1.1-.25 1.69-.25.39 0 .81.04 1.24.14.45.09.86.25 1.24.49.39.25.71.59.96 1.05.24.44.37 1.02.37 1.74v6.52h-1.87v-1.35h-.08c-.12.25-.31.49-.55.73-.25.24-.57.44-.95.6-.39.15-.86.23-1.4.23zm.42-1.53c.53 0 .98-.1 1.35-.31.38-.21.67-.48.87-.82.2-.34.3-.71.3-1.09v-1.27c-.07.07-.2.13-.4.19-.19.06-.41.11-.66.15-.25.04-.49.07-.72.11-.23.03-.43.05-.59.08-.37.04-.71.12-1.01.23-.31.11-.55.27-.73.48-.18.21-.27.48-.27.82 0 .47.17.83.52 1.07.35.24.8.36 1.34.36zm11.55-8.5v1.54h-5.36v-1.54h5.36zm-3.92-2.35h1.91v9.28c0 .38.05.65.16.84.11.18.26.31.43.38.18.06.37.09.58.09.16 0 .29-.01.41-.03.11-.02.2-.04.26-.05l.35 1.58c-.11.04-.27.08-.47.13-.21.04-.46.07-.77.07-.5.01-.97-.08-1.41-.26-.43-.19-.78-.48-1.05-.87-.27-.4-.4-.89-.4-1.48v-9.68zM1271.88 1098.6h96.35v1.23h-96.35v-1.23z" fill="#A1A1AA"/><a><path fill="none" d="M153.058 1.107h96.359v21.772h-96.359z"/></a><path d="M1460.77 763.231l-13.49 13.493M1460.77 776.724l-13.49-13.493" stroke="#A1A1AA" stroke-width="2.249" stroke-linecap="round" stroke-linejoin="round"/></g><g clip-path="url(#prefix__clip3_142_1270)"><rect x="1235.6" y="600" width="260" height="80" rx="16" fill="#8257E5"/><path d="M1297.29 653.75h-13.17a1.16 1.16 0 01-.46-.087 1.28 1.28 0 01-.4-.261 1.22 1.22 0 01-.26-.392 1.052 1.052 0 01-.08-.463v-13.172a14.36 14.36 0 014.21-10.165 14.362 14.362 0 0115.66-3.116 14.4 14.4 0 014.67 3.116 14.4 14.4 0 013.11 4.664c.73 1.744 1.1 3.613 1.1 5.501 0 1.888-.37 3.757-1.1 5.501a14.4 14.4 0 01-3.11 4.664 14.416 14.416 0 01-10.17 4.21z" stroke="#fff" stroke-width="2.5" stroke-linecap="round" stroke-linejoin="round"/><path d="M1299.09 640c0 .992-.81 1.797-1.8 1.797s-1.8-.805-1.8-1.797c0-.992.81-1.797 1.8-1.797s1.8.805 1.8 1.797zM1291.59 640c0 .992-.81 1.797-1.8 1.797s-1.8-.805-1.8-1.797c0-.992.81-1.797 1.8-1.797s1.8.805 1.8 1.797zM1306.59 640c0 .992-.81 1.797-1.8 1.797s-1.8-.805-1.8-1.797c0-.992.81-1.797 1.8-1.797s1.8.805 1.8 1.797z" fill="#fff" stroke="#fff" stroke-width=".156"/><path d="M1332.13 650v-19.394h12.03v2.519h-9.1v5.909h8.24v2.51h-8.24V650h-2.93zm20.6.294c-1.43 0-2.67-.307-3.7-.919-1.03-.619-1.83-1.487-2.39-2.604-.55-1.124-.83-2.44-.83-3.949 0-1.49.28-2.803.83-3.939.56-1.137 1.35-2.024 2.35-2.661 1.01-.638 2.19-.957 3.54-.957.82 0 1.62.136 2.39.407.77.272 1.46.698 2.07 1.279.61.581 1.1 1.335 1.45 2.263.35.922.53 2.042.53 3.362v1.004h-11.56v-2.122h8.79c0-.745-.16-1.404-.46-1.979a3.416 3.416 0 00-1.28-1.373c-.54-.335-1.18-.502-1.91-.502-.8 0-1.49.196-2.08.587-.59.385-1.05.89-1.37 1.515a4.444 4.444 0 00-.47 2.017v1.658c0 .972.17 1.799.51 2.481.35.682.83 1.202 1.45 1.562.62.354 1.34.531 2.17.531.53 0 1.02-.076 1.47-.228a3.15 3.15 0 001.14-.7c.32-.31.57-.692.74-1.146l2.68.483c-.21.789-.6 1.48-1.16 2.074-.54.587-1.24 1.044-2.07 1.373-.83.322-1.77.483-2.83.483zm15.65 0c-1.43 0-2.67-.307-3.7-.919-1.03-.619-1.83-1.487-2.39-2.604-.55-1.124-.83-2.44-.83-3.949 0-1.49.28-2.803.83-3.939.56-1.137 1.35-2.024 2.35-2.661 1.01-.638 2.19-.957 3.54-.957.82 0 1.62.136 2.39.407.77.272 1.46.698 2.07 1.279.61.581 1.1 1.335 1.45 2.263.35.922.53 2.042.53 3.362v1.004h-11.56v-2.122h8.79c0-.745-.15-1.404-.46-1.979a3.416 3.416 0 00-1.28-1.373c-.54-.335-1.18-.502-1.91-.502-.79 0-1.49.196-2.08.587-.59.385-1.04.89-1.37 1.515a4.444 4.444 0 00-.47 2.017v1.658c0 .972.17 1.799.51 2.481.35.682.83 1.202 1.45 1.562.62.354 1.34.531 2.17.531.54 0 1.02-.076 1.47-.228a3.15 3.15 0 001.14-.7c.32-.31.57-.692.74-1.146l2.68.483c-.21.789-.6 1.48-1.15 2.074-.55.587-1.24 1.044-2.08 1.373-.82.322-1.77.483-2.83.483zm14.83-.01c-1.18 0-2.22-.3-3.15-.9-.91-.606-1.63-1.467-2.16-2.585-.51-1.123-.77-2.471-.77-4.043s.26-2.917.78-4.034c.53-1.118 1.26-1.973 2.18-2.567.92-.593 1.97-.89 3.14-.89.9 0 1.63.152 2.17.455.56.296.99.644 1.29 1.041.31.398.55.748.72 1.052h.17v-7.207h2.83V650h-2.76v-2.263h-.24c-.17.309-.41.663-.74 1.06-.31.398-.75.745-1.3 1.042-.56.297-1.28.445-2.16.445zm.62-2.415c.82 0 1.51-.214 2.07-.644.57-.435.99-1.038 1.29-1.808.29-.771.44-1.667.44-2.69 0-1.01-.14-1.894-.44-2.651-.29-.758-.71-1.348-1.27-1.771-.57-.423-1.26-.635-2.09-.635-.85 0-1.56.221-2.13.663-.57.442-1 1.045-1.29 1.809-.28.764-.42 1.626-.42 2.585 0 .972.14 1.847.43 2.623.29.777.72 1.392 1.29 1.847.58.448 1.28.672 2.12.672zm10.85 2.131v-19.394h2.83v7.207h.17c.17-.304.41-.654.71-1.052.31-.397.74-.745 1.29-1.041.55-.303 1.28-.455 2.18-.455 1.18 0 2.22.297 3.14.89.93.594 1.65 1.449 2.17 2.567.53 1.117.8 2.462.8 4.034 0 1.572-.26 2.92-.79 4.043-.52 1.118-1.24 1.979-2.16 2.585-.91.6-1.96.9-3.13.9-.88 0-1.61-.148-2.17-.445-.55-.297-.99-.644-1.31-1.042a9.602 9.602 0 01-.73-1.06h-.23V650h-2.77zm2.78-7.273c0 1.023.15 1.919.44 2.69.3.77.73 1.373 1.29 1.808.56.43 1.25.644 2.06.644.85 0 1.56-.224 2.13-.672.56-.455.99-1.07 1.28-1.847.3-.776.45-1.651.45-2.623 0-.959-.15-1.821-.44-2.585-.28-.764-.71-1.367-1.28-1.809-.57-.442-1.28-.663-2.14-.663-.82 0-1.51.212-2.08.635-.56.423-.99 1.013-1.28 1.771-.29.757-.43 1.641-.43 2.651zm17.92 7.595c-.92 0-1.75-.17-2.5-.511a4.277 4.277 0 01-1.77-1.506c-.43-.657-.64-1.462-.64-2.415 0-.821.15-1.496.47-2.026.32-.531.74-.95 1.28-1.26a6.525 6.525 0 011.8-.701c.66-.157 1.34-.277 2.02-.359.88-.101 1.58-.184 2.13-.247.54-.069.93-.18 1.18-.331.25-.152.37-.398.37-.739v-.066c0-.827-.24-1.468-.7-1.922-.46-.455-1.15-.682-2.07-.682-.95 0-1.7.211-2.25.634-.54.417-.92.881-1.13 1.392l-2.66-.606c.32-.884.78-1.597 1.38-2.14a5.665 5.665 0 012.12-1.193 8.196 8.196 0 012.51-.379c.58 0 1.19.07 1.84.208.66.133 1.27.379 1.84.739.57.36 1.04.874 1.41 1.544.37.663.55 1.524.55 2.585V650h-2.77v-1.989h-.11c-.18.367-.46.726-.82 1.08-.37.353-.84.647-1.41.881-.58.233-1.27.35-2.07.35zm.62-2.273c.78 0 1.45-.154 2-.464.57-.309.99-.713 1.28-1.212.3-.505.45-1.045.45-1.619v-1.875c-.1.101-.3.195-.59.284a9.11 9.11 0 01-.97.218l-1.07.161-.88.113c-.55.07-1.05.187-1.5.351-.45.164-.81.401-1.08.71-.27.303-.4.707-.4 1.212 0 .701.26 1.231.78 1.591.52.353 1.17.53 1.98.53zm16.46 2.245c-1.41 0-2.62-.319-3.64-.957-1.01-.644-1.79-1.531-2.33-2.661-.54-1.13-.81-2.424-.81-3.882 0-1.478.27-2.781.83-3.911.56-1.137 1.34-2.024 2.35-2.661 1.01-.638 2.2-.957 3.57-.957 1.1 0 2.09.205 2.95.616.87.404 1.57.972 2.1 1.704.53.733.85 1.588.95 2.567h-2.75c-.15-.682-.5-1.269-1.04-1.762-.54-.492-1.26-.738-2.16-.738-.79 0-1.48.208-2.08.625-.58.41-1.04.997-1.37 1.761-.33.757-.49 1.654-.49 2.689 0 1.061.16 1.976.48 2.746.32.771.78 1.367 1.36 1.79.6.423 1.29.635 2.1.635.53 0 1.02-.098 1.45-.294.45-.202.82-.489 1.11-.862.31-.372.52-.82.64-1.344h2.75c-.1.94-.4 1.78-.92 2.519-.51.738-1.19 1.319-2.05 1.742-.85.423-1.85.635-3 .635zm11.6-5.228l-.01-3.456h.49l5.79-6.155h3.39l-6.61 7.007h-.44l-2.61 2.604zm-2.6 4.934v-19.394h2.83V650h-2.83zm9.19 0l-5.21-6.913 1.95-1.979 6.73 8.892h-3.47z" fill="#fff"/></g></g></g><defs><clipPath id="prefix__clip0_142_1270"><path fill="#fff" d="M0 0h1920v1348H0z"/></clipPath><clipPath id="prefix__clip1_142_1270"><path fill="#fff" transform="translate(240 570)" d="M0 0h1440v900H0z"/></clipPath><clipPath id="prefix__clip2_142_1270"><path fill="#fff" transform="translate(1015.99 836.049)" d="M0 0h456.026v167.909H0z"/></clipPath><clipPath id="prefix__clip3_142_1270"><path fill="#fff" transform="translate(1236 600)" d="M0 0h260v80H0z"/></clipPath><filter id="prefix__filter0_f_142_1270" x="-1200" y="-1050" width="4320" height="4320" filterUnits="userSpaceOnUse" color-interpolation-filters="sRGB"><feFlood flood-opacity="0" result="BackgroundImageFix"/><feBlend in="SourceGraphic" in2="BackgroundImageFix" result="shape"/><feGaussianBlur stdDeviation="600" result="effect1_foregroundBlur_142_1270"/></filter><filter id="prefix__filter1_b_142_1270" x="232" y="562" width="1456" height="916" filterUnits="userSpaceOnUse" color-interpolation-filters="sRGB"><feFlood flood-opacity="0" result="BackgroundImageFix"/><feGaussianBlur in="BackgroundImage" stdDeviation="4"/><feComposite in2="SourceAlpha" operator="in" result="effect1_backgroundBlur_142_1270"/><feBlend in="SourceGraphic" in2="effect1_backgroundBlur_142_1270" result="shape"/></filter><filter id="prefix__filter2_d_142_1270" x="960" y="704" width="567.727" height="459.786" filterUnits="userSpaceOnUse" color-interpolation-filters="sRGB"><feFlood flood-opacity="0" result="BackgroundImageFix"/><feColorMatrix in="SourceAlpha" values="0 0 0 0 0 0 0 0 0 0 0 0 0 0 0 0 0 0 127 0" result="hardAlpha"/><feOffset dy="8"/><feGaussianBlur stdDeviation="16"/><feComposite in2="hardAlpha" operator="out"/><feColorMatrix values="0 0 0 0 0 0 0 0 0 0 0 0 0 0 0 0 0 0 0.15 0"/><feBlend in2="BackgroundImageFix" result="effect1_dropShadow_142_1270"/><feBlend in="SourceGraphic" in2="effect1_dropShadow_142_1270" result="shape"/></filter></defs></svg>
